<?xml version="1.0" standalone="no"?>
<!DOCTYPE svg PUBLIC "-//W3C//DTD SVG 20010904//EN"
 "http://www.w3.org/TR/2001/REC-SVG-20010904/DTD/svg10.dtd">
<svg version="1.0" xmlns="http://www.w3.org/2000/svg"
 width="1280.000000pt" height="872.000000pt" viewBox="0 0 1280.000000 872.000000"
 preserveAspectRatio="xMidYMid meet">
<metadata>
Created by potrace 1.16, written by Peter Selinger 2001-2019
</metadata>
<g transform="translate(0.000000,872.000000) scale(0.100000,-0.100000)"
fill="#000000" stroke="none">
<path d="M519 8705 c-1 -5 -1 -21 -1 -35 1 -16 -1 -19 -4 -7 -7 21 -11 21 -31
2 -9 -9 -23 -13 -34 -10 -11 4 -19 2 -19 -4 0 -6 16 -11 36 -11 30 0 35 -3 29
-17 -12 -32 -10 -37 11 -39 31 -2 44 -13 37 -31 -4 -10 -2 -14 4 -10 6 4 13
-3 16 -15 4 -12 9 -20 11 -17 3 3 -3 30 -13 60 -11 29 -17 57 -15 61 3 5 0 8
-7 8 -18 0 7 27 31 33 13 3 20 0 20 -10 0 -9 -6 -12 -18 -9 -13 4 -18 1 -18
-14 0 -11 7 -20 14 -20 12 0 12 -3 2 -15 -15 -18 -3 -38 17 -30 13 4 14 3 3
-10 -7 -8 -8 -15 -3 -15 5 0 8 -14 5 -30 -4 -30 -34 -56 -51 -45 -5 3 -8 -3
-7 -12 3 -20 22 -28 31 -14 3 6 11 11 16 11 6 0 8 -4 5 -8 -2 -4 -1 -14 3 -21
7 -10 14 -10 38 2 19 10 34 12 44 6 15 -9 13 -10 -30 -13 -23 -2 -24 -23 -2
-29 12 -3 22 1 26 11 3 8 8 12 12 9 3 -4 1 -13 -6 -21 -9 -11 -6 -14 19 -18
24 -4 30 -1 25 9 -3 8 -5 17 -5 19 0 3 -4 2 -10 -1 -5 -3 -10 3 -10 14 0 15 4
19 18 14 15 -6 15 -5 3 10 -12 15 -10 18 10 26 16 5 27 5 32 -3 5 -7 7 -3 5 9
-2 11 -10 26 -18 33 -13 12 -13 13 3 8 19 -6 24 10 5 17 -8 3 -6 6 5 6 9 1 17
6 17 12 0 5 -5 7 -12 3 -8 -5 -9 -2 -5 9 3 10 2 17 -3 17 -6 0 -10 5 -10 11 0
5 5 7 12 3 8 -5 9 -2 5 9 -3 10 -3 17 1 17 5 0 14 -16 22 -35 7 -19 18 -32 24
-29 6 3 2 -2 -9 -11 -20 -16 -20 -16 5 -37 15 -12 20 -23 13 -25 -8 -3 -8 -11
2 -30 7 -14 11 -31 9 -38 -3 -7 4 -15 14 -17 22 -6 23 4 3 42 -11 22 -10 23 2
8 8 -10 22 -18 31 -18 13 0 16 -5 11 -19 -4 -14 -1 -19 10 -17 19 3 36 26 29
38 -9 13 13 9 25 -5 7 -9 7 -17 1 -25 -6 -7 -7 -10 -4 -7 4 3 14 -1 22 -8 13
-10 15 -9 9 5 -3 10 1 22 10 30 14 11 16 11 11 -3 -5 -11 -1 -16 10 -15 12 1
16 -6 14 -19 -2 -19 -2 -19 11 -2 8 9 18 17 22 17 5 0 0 -9 -9 -19 -11 -12
-25 -17 -39 -14 -16 4 -18 2 -8 -5 8 -6 10 -15 6 -23 -6 -9 -4 -11 7 -6 9 3
21 0 28 -6 9 -9 11 -7 8 12 -1 13 2 26 8 28 14 5 11 -31 -4 -50 -7 -7 -9 -17
-5 -20 3 -4 -1 -7 -9 -7 -10 0 -14 -8 -12 -26 3 -35 10 -39 31 -19 17 17 18
17 24 -6 4 -13 7 -17 8 -9 1 26 -11 60 -20 54 -5 -3 -6 2 -3 10 5 12 11 13 25
5 13 -6 19 -6 19 1 0 5 11 10 25 10 15 0 25 6 25 15 0 8 -6 12 -13 10 -6 -3
-18 4 -25 15 -11 19 -4 28 11 13 11 -11 58 -13 51 -2 -3 6 -13 9 -22 8 -25 -3
-52 11 -52 27 0 8 10 14 23 14 16 0 18 -3 8 -9 -10 -6 -10 -10 -1 -16 19 -11
36 11 21 29 -9 11 -9 16 0 22 8 4 9 3 5 -4 -4 -7 -4 -12 1 -13 4 0 17 -2 28
-4 20 -4 20 -4 1 11 -11 8 -14 14 -8 14 7 0 12 4 12 10 0 5 -6 7 -14 4 -7 -3
-16 1 -19 9 -4 10 5 13 36 11 23 -1 43 -7 45 -14 3 -9 -2 -11 -17 -7 -11 3
-21 1 -21 -4 0 -12 37 -11 45 1 4 6 1 17 -5 25 -6 8 -10 22 -8 32 3 14 7 10
18 -14 9 -20 17 -28 22 -20 4 6 2 17 -3 23 -6 8 -5 14 6 18 8 3 15 1 15 -5 0
-6 4 -8 10 -4 14 9 0 34 -16 28 -8 -3 -14 0 -14 7 0 6 -4 9 -9 5 -5 -3 -12 -1
-15 4 -7 11 18 23 57 27 15 2 36 5 47 6 11 1 19 9 17 17 -1 9 6 17 16 19 15 3
18 0 12 -17 -5 -17 -3 -20 12 -14 10 3 15 3 11 -2 -11 -12 11 -45 30 -45 16 1
16 2 0 14 -10 7 -18 23 -18 36 0 19 2 20 15 10 9 -7 19 -9 23 -5 4 4 1 10 -5
12 -7 3 -13 9 -13 14 0 6 7 6 19 0 10 -6 21 -7 25 -4 3 3 6 1 6 -6 0 -7 4 -10
9 -6 5 3 13 0 16 -6 5 -7 0 -9 -12 -7 -11 2 -19 -1 -19 -7 1 -12 36 -7 54 7 6
6 12 7 12 4 0 -9 -27 -37 -35 -36 -3 0 -8 -1 -12 -1 -5 -1 -16 -1 -25 0 -10 1
-18 -1 -19 -6 0 -4 -2 -20 -3 -35 -2 -33 -20 -55 -31 -39 -3 6 1 14 9 17 13 5
14 8 1 20 -8 8 -18 13 -23 12 -6 -2 -18 6 -28 17 -21 22 -69 32 -78 16 -8 -12
38 -26 53 -16 6 3 11 2 11 -4 0 -5 -9 -13 -20 -16 -11 -3 -20 -11 -20 -17 0
-6 -3 -9 -6 -5 -9 9 -47 -30 -42 -44 3 -8 16 -1 36 19 18 18 43 32 55 31 12 0
16 -3 10 -6 -7 -2 -13 -9 -13 -14 0 -4 7 -6 15 -3 8 4 15 1 15 -5 0 -6 -4 -11
-9 -11 -5 0 -11 -13 -13 -29 -2 -17 -1 -28 3 -25 4 2 15 -6 23 -18 9 -12 19
-18 23 -14 5 5 2 11 -4 13 -7 3 -13 11 -13 19 0 8 -6 14 -12 14 -9 0 -8 4 2
10 18 12 33 13 26 2 -2 -4 -2 -13 2 -19 4 -7 18 11 32 43 17 36 31 54 43 54
10 0 20 7 23 15 4 10 14 13 30 9 19 -5 24 -2 24 12 0 16 -2 16 -10 4 -5 -8
-12 -11 -16 -7 -4 3 -2 12 4 19 5 7 8 30 7 50 -2 21 2 41 9 47 10 8 12 4 11
-17 -1 -15 -4 -31 -6 -37 -7 -20 20 -53 40 -48 15 4 18 0 16 -19 -1 -12 0 -15
2 -5 2 9 11 17 18 17 8 0 16 4 19 9 4 5 -2 7 -12 4 -23 -6 -56 40 -47 67 3 10
1 21 -5 25 -17 11 -11 25 11 25 16 0 19 -4 14 -21 -5 -15 -4 -19 4 -15 6 4 11
2 11 -3 0 -6 -7 -11 -15 -11 -8 0 -15 -3 -15 -6 0 -11 41 -43 62 -50 19 -6 19
-6 -1 -21 -12 -8 -21 -23 -21 -34 0 -17 -11 -24 -33 -20 -4 1 -2 -8 5 -19 13
-21 28 -27 28 -11 0 5 -6 12 -12 15 -7 4 -2 4 10 2 13 -3 21 -2 18 1 -3 3 2
12 12 20 9 8 11 12 5 8 -7 -3 -13 -1 -13 4 0 6 5 11 11 11 5 0 8 4 5 9 -3 5 6
9 20 9 14 0 33 7 42 16 16 16 15 17 -10 12 -21 -3 -29 0 -34 16 -3 12 -1 24 6
28 9 6 4 13 -16 25 -16 9 -21 14 -11 11 10 -3 26 3 37 14 15 15 20 16 20 6 0
-8 -5 -18 -10 -21 -17 -10 0 -26 23 -23 12 1 27 -1 33 -5 6 -3 19 2 29 13 10
11 14 20 9 20 -5 0 -4 4 3 8 8 5 8 12 -2 25 -12 17 -14 17 -27 -10 -7 -15 -22
-29 -33 -30 -18 -3 -18 -2 2 8 12 6 23 20 26 30 5 20 -7 26 -18 9 -4 -6 -13
-5 -26 3 -17 10 -22 9 -30 -5 -10 -18 -49 -25 -49 -9 0 5 9 7 20 4 11 -3 20 0
20 6 0 7 -38 10 -120 9 -66 -2 -120 -6 -120 -10 0 -4 -11 -10 -25 -14 -26 -6
-32 -18 -15 -29 6 -3 10 -1 10 4 0 6 9 11 19 11 10 0 22 8 25 17 6 15 8 15 16
3 15 -23 12 -40 -8 -40 -10 0 -24 -6 -31 -12 -11 -10 -13 -10 -7 0 10 17 -10
15 -28 -4 -10 -10 -16 -11 -16 -4 0 7 -7 9 -16 6 -9 -3 -12 -2 -9 5 4 6 14 8
22 5 11 -4 13 -2 9 9 -8 22 3 45 20 38 8 -3 14 0 14 6 0 6 -18 11 -41 11 -31
0 -40 -3 -36 -14 4 -10 0 -12 -15 -8 -15 4 -17 7 -6 13 7 5 -16 8 -56 7 -68
-1 -69 -1 -48 -19 12 -9 22 -23 22 -30 0 -9 -4 -8 -12 3 -17 21 -82 32 -108
18 -22 -12 -27 -1 -7 19 10 10 9 12 -3 9 -8 -2 -21 -10 -28 -18 -12 -13 -13
-13 -8 3 7 21 -12 23 -20 2 -4 -8 -10 -15 -15 -15 -4 0 -6 7 -2 15 5 14 -5 16
-63 13 -63 -3 -69 -5 -66 -23 4 -20 4 -20 -15 0 -10 12 -31 22 -48 22 -27 2
-28 1 -7 -7 26 -11 27 -16 6 -65 -8 -20 -11 -34 -6 -31 6 3 15 0 21 -8 9 -11
8 -15 -5 -20 -9 -3 -14 -12 -11 -19 10 -26 -8 -36 -20 -11 -6 13 -7 24 -2 24
5 0 9 5 9 11 0 7 -10 9 -25 5 -18 -5 -27 -1 -35 13 -14 27 -13 32 8 29 13 -2
17 4 17 27 1 17 4 36 9 43 5 9 -4 12 -39 10 -50 -1 -63 -11 -45 -33 10 -12 10
-15 0 -15 -7 0 -10 -7 -7 -15 4 -8 1 -17 -5 -21 -8 -5 -9 3 -5 24 4 19 2 32
-3 32 -6 0 -10 -4 -10 -9 0 -10 -40 -8 -58 3 -11 6 -17 -11 -13 -36 0 -4 -11
0 -26 7 -15 8 -29 12 -33 10 -3 -2 -6 5 -7 15 -2 22 47 32 80 15 28 -14 58 -8
51 10 -7 17 -118 12 -141 -7 -12 -10 -17 -10 -20 -1 -2 7 -11 9 -20 6 -11 -4
-14 -2 -9 5 4 7 -1 10 -14 9 -11 -1 -20 -6 -21 -12z"/>
<path d="M1868 8713 c6 -2 12 -13 12 -23 0 -10 7 -21 16 -24 8 -3 13 -2 10 2
-2 4 7 12 20 19 30 14 31 6 2 -25 l-23 -23 27 10 c25 9 27 8 33 -20 6 -24 9
-28 21 -18 8 7 14 7 14 1 0 -18 -27 -34 -35 -21 -5 7 -22 9 -46 6 -43 -6 -44
-5 -29 24 8 15 7 19 -5 21 -8 0 -18 1 -22 2 -5 1 -19 -7 -33 -16 -18 -13 -21
-21 -13 -29 8 -8 4 -18 -15 -36 -15 -14 -19 -20 -9 -12 15 10 20 10 26 0 4 -6
12 -11 17 -10 21 4 26 -2 14 -15 -9 -12 -8 -15 8 -13 10 0 19 8 18 17 -1 10 6
14 20 12 11 -1 29 7 39 18 10 11 23 20 28 20 6 0 2 -9 -8 -20 -14 -15 -15 -20
-4 -20 8 0 20 9 27 20 7 12 17 18 23 14 6 -3 13 3 16 15 7 26 21 27 39 4 12
-17 13 -16 14 5 0 13 7 30 15 38 8 8 11 22 8 31 -6 15 -5 16 9 3 19 -18 18
-56 -2 -52 -8 2 -12 0 -8 -4 4 -4 3 -13 -3 -21 -9 -9 -8 -13 0 -13 19 0 12
-31 -11 -51 -13 -10 -17 -18 -10 -19 6 0 12 5 12 10 0 6 5 10 10 10 33 0 -26
-52 -62 -54 -10 -1 -18 -5 -18 -11 1 -15 44 -5 53 12 6 10 12 11 21 3 27 -21
56 49 33 78 -7 9 -6 11 7 6 11 -4 16 -1 16 11 0 12 -5 15 -21 10 -18 -6 -19
-5 -7 14 13 22 68 30 68 10 0 -5 -5 -7 -10 -4 -13 8 -22 -17 -18 -50 3 -26 3
-26 16 -4 11 17 11 20 0 13 -10 -6 -10 -4 1 9 7 9 18 14 24 10 5 -3 7 -1 4 4
-4 6 0 13 8 17 8 3 15 0 15 -6 0 -6 3 -8 7 -5 3 4 14 0 24 -9 16 -15 17 -14
12 5 -3 12 -13 21 -24 21 -23 0 -33 16 -14 24 8 3 15 1 15 -5 0 -6 5 -7 11 -3
7 4 8 9 1 13 -16 10 -3 61 15 54 12 -5 12 -7 1 -14 -10 -7 -9 -9 5 -9 10 0 16
-4 13 -9 -8 -12 57 -8 66 4 19 26 5 28 -49 8 -7 -3 -10 3 -6 16 4 16 11 20 24
16 11 -4 19 -2 19 5 0 7 -22 10 -59 9 -44 -1 -61 -6 -70 -20 -7 -12 -7 -19 -1
-19 5 0 10 5 10 10 0 6 5 10 10 10 17 0 11 -21 -12 -40 -18 -14 -26 -16 -37
-7 -12 10 -13 9 -6 -2 6 -11 4 -13 -8 -8 -10 3 -17 2 -17 -4 0 -6 -5 -7 -11
-3 -8 4 -7 9 2 15 13 8 15 12 18 43 0 8 11 17 24 19 12 2 3 5 -20 6 -23 0 -45
-3 -48 -9 -3 -5 -20 -10 -36 -10 -17 0 -28 4 -25 8 2 4 -17 9 -42 10 -29 1
-42 -2 -33 -7 10 -7 11 -10 1 -16 -8 -5 -18 -1 -26 10 -11 14 -16 16 -28 6
-10 -8 -16 -9 -21 -1 -3 5 -16 10 -28 9 -12 0 -16 -3 -9 -6z"/>
<path d="M8550 8711 c0 -12 29 -23 41 -16 5 4 6 -1 3 -9 -9 -23 -31 -26 -49
-6 -9 10 -24 16 -32 13 -8 -3 -19 0 -24 8 -6 10 -9 10 -9 2 0 -7 -7 -10 -15
-7 -10 4 -15 0 -15 -15 0 -12 3 -20 8 -19 4 0 16 -2 27 -6 56 -21 68 -28 59
-34 -7 -5 -6 -16 3 -32 9 -18 13 -20 13 -7 0 9 5 17 11 17 5 0 7 5 3 12 -4 6
-3 8 4 5 5 -4 8 -15 5 -26 -5 -19 42 -50 102 -66 17 -4 24 -10 18 -12 -21 -8
-16 -53 6 -53 14 0 18 6 16 25 -2 14 1 25 6 25 5 0 9 -5 9 -11 0 -6 9 -8 20
-4 25 8 26 -3 3 -21 -10 -7 -13 -14 -6 -14 6 0 9 -9 6 -20 -9 -34 12 -49 52
-36 19 6 35 14 35 19 0 4 14 1 30 -8 35 -18 40 -29 9 -20 -21 7 -21 7 -3 -18
17 -22 20 -23 31 -8 11 15 12 15 13 0 0 -23 -29 -32 -48 -17 -13 11 -15 10 -9
-6 6 -15 5 -17 -7 -7 -7 6 -21 8 -31 5 -13 -5 -16 -3 -13 7 3 8 14 13 24 12
16 -1 16 1 -6 19 -23 19 -24 19 -31 1 -4 -10 -5 -21 -2 -25 2 -5 -1 -8 -6 -8
-6 0 -11 -9 -11 -20 0 -11 5 -20 10 -20 6 0 10 5 10 10 0 15 16 12 34 -5 14
-14 18 -14 39 0 23 15 26 14 61 -22 20 -21 36 -44 37 -53 0 -10 2 -11 6 -2 2
6 10 12 16 12 7 -1 1 -9 -12 -20 -28 -24 -45 -17 -38 16 3 16 0 24 -10 24 -7
0 -16 7 -19 15 -4 8 -17 15 -31 15 -14 0 -21 -4 -18 -10 3 -6 0 -16 -7 -23
-14 -15 -38 -12 -38 4 0 6 5 7 10 4 6 -3 10 -1 10 5 0 7 -6 10 -14 7 -7 -3
-19 0 -25 6 -7 7 -11 7 -11 1 0 -6 3 -14 8 -18 4 -4 7 -11 7 -14 1 -4 5 -18 9
-31 6 -18 10 -21 17 -10 7 11 9 11 9 -2 0 -26 -30 -32 -48 -9 -16 19 -92 36
-92 21 0 -4 -10 -7 -22 -7 -13 1 -23 -3 -23 -9 0 -5 7 -9 15 -7 8 1 23 3 33 4
9 1 17 6 17 10 0 4 5 8 10 8 14 0 12 -27 -2 -33 -7 -3 -3 -6 10 -6 14 -1 22 5
22 16 0 15 3 14 23 -5 17 -18 19 -24 8 -31 -9 -6 -10 -11 -2 -15 6 -4 11 -2
11 5 0 8 4 8 16 -2 14 -11 14 -14 2 -23 -8 -6 -13 -15 -12 -21 2 -5 0 -16 -5
-23 -7 -11 -16 -15 -50 -21 -3 -1 4 -8 15 -17 18 -15 18 -15 -9 -9 -35 7 -33
-14 2 -30 14 -6 20 -16 17 -27 -2 -10 0 -18 5 -18 5 0 9 5 9 11 0 7 8 17 17
24 13 10 17 25 15 59 l-2 47 35 -3 35 -2 -25 -22 -25 -21 22 -19 c15 -14 22
-16 25 -6 7 20 41 14 48 -9 6 -17 9 -19 17 -8 7 10 8 8 5 -8 -4 -16 0 -23 10
-23 8 0 13 -5 11 -11 -7 -20 -23 -13 -44 18 l-21 32 -1 -30 c0 -16 3 -29 8
-29 5 0 12 -9 15 -21 5 -15 10 -18 18 -10 14 14 67 15 67 1 0 -5 -7 -10 -15
-10 -8 0 -15 -5 -15 -11 0 -6 7 -9 15 -5 20 7 19 -18 -1 -38 -8 -9 -12 -21 -8
-27 4 -8 9 -7 15 2 7 11 9 10 9 -4 0 -10 4 -16 9 -12 6 3 8 19 6 35 -4 32 9
41 19 14 4 -10 2 -13 -6 -8 -8 5 -9 2 -5 -10 4 -10 7 -20 7 -23 0 -2 7 2 15
11 20 20 19 32 -6 50 -15 10 -19 20 -14 36 4 14 1 28 -9 39 -19 20 -12 51 11
51 9 0 13 6 9 15 -3 8 -1 15 3 15 5 0 4 11 -2 25 -7 14 -15 25 -19 25 -12 0
-10 -14 4 -28 20 -20 0 -26 -26 -8 -32 20 -31 20 -33 -4 -1 -14 4 -20 18 -20
24 0 24 -11 -1 -40 -20 -23 -24 -21 -21 12 1 9 -6 19 -16 22 -10 3 -19 15 -19
25 0 11 3 18 7 15 4 -2 9 3 12 11 4 9 1 12 -7 9 -8 -3 -16 4 -19 18 -5 16 -9
20 -17 12 -8 -8 -8 -19 0 -39 9 -25 9 -27 -5 -15 -9 7 -15 23 -13 34 1 12 -2
27 -6 35 -7 11 -5 13 6 8 13 -5 15 1 11 36 -3 23 -9 46 -14 51 -16 18 -9 27
11 16 15 -8 19 -17 15 -31 -4 -10 -2 -19 4 -19 14 0 51 -40 62 -67 11 -29 33
-31 24 -3 -5 15 -2 20 13 20 11 0 22 -7 26 -15 3 -8 1 -15 -5 -15 -6 0 -6 -4
1 -12 6 -7 19 -24 30 -37 16 -19 20 -20 20 -8 0 20 16 23 23 5 3 -7 6 -1 6 15
1 15 5 27 10 27 5 0 11 9 14 21 3 12 10 18 16 14 6 -3 8 -12 4 -18 -4 -7 0 -7
10 1 21 17 40 6 32 -19 -4 -12 -2 -19 7 -19 10 0 10 -2 -1 -9 -9 -6 -10 -11
-2 -15 11 -7 15 4 12 36 -1 9 3 19 9 23 7 4 10 1 9 -6 -5 -21 44 -99 61 -98
10 0 11 2 3 6 -14 5 -18 33 -5 33 4 0 13 -5 20 -12 7 -7 12 -9 12 -5 0 4 9 3
20 -3 14 -8 20 -8 20 0 0 10 -57 36 -71 33 -4 -1 -16 8 -27 20 -18 19 -19 24
-7 41 13 17 15 17 21 3 3 -10 11 -17 16 -17 6 0 5 6 -2 15 -7 8 -8 15 -2 15 5
0 14 -6 20 -13 8 -10 6 -16 -9 -25 -10 -7 -19 -17 -19 -23 0 -8 5 -8 15 1 12
10 16 9 21 -3 7 -18 42 -29 50 -15 3 5 15 2 27 -9 18 -16 20 -16 14 -1 -3 9 1
22 9 28 12 10 14 8 12 -14 -1 -14 -5 -26 -9 -26 -4 0 -9 -10 -12 -22 -5 -17
-9 -19 -20 -9 -16 13 -50 4 -41 -11 3 -5 12 -7 20 -4 7 3 16 1 19 -5 4 -5 -1
-12 -11 -16 -19 -7 -48 23 -37 39 3 6 -5 5 -17 -2 -18 -9 -21 -18 -16 -41 3
-15 1 -31 -4 -34 -6 -3 -7 1 -4 10 4 9 3 15 -2 14 -21 -4 -34 2 -54 23 -19 21
-20 23 -4 35 10 7 14 16 10 20 -4 4 -11 1 -15 -6 -5 -7 -13 -11 -19 -7 -6 3
-13 0 -15 -6 -4 -8 -6 -7 -6 4 -1 9 -5 19 -11 23 -5 3 -5 -6 1 -24 7 -20 15
-28 25 -24 9 3 14 -2 14 -16 0 -29 -26 -17 -42 20 -14 30 -23 36 -33 19 -3 -6
1 -17 9 -26 20 -20 20 -24 -1 -41 -14 -10 -14 -13 -3 -11 8 2 20 9 26 17 8 10
13 11 18 3 4 -7 16 -12 27 -12 10 0 19 -5 19 -10 0 -6 -11 -8 -25 -4 -16 4
-25 2 -25 -6 0 -7 -8 -9 -20 -5 -26 8 -57 -2 -57 -18 0 -9 9 -12 24 -9 13 2
23 -1 23 -7 0 -7 -4 -10 -9 -7 -4 3 -14 -7 -20 -22 l-13 -27 -21 45 c-19 41
-22 52 -18 80 0 5 9 6 18 3 12 -5 15 -2 10 10 -3 9 -2 17 3 17 6 0 10 5 10 10
0 21 -39 10 -42 -12 -2 -16 -9 -22 -20 -20 -11 2 -18 -3 -18 -13 0 -10 5 -13
12 -9 8 5 9 -2 5 -25 -4 -18 -3 -30 2 -27 14 9 33 -20 30 -46 -1 -13 2 -31 6
-41 11 -26 0 -31 -27 -13 -23 15 -25 15 -25 -1 0 -10 4 -23 9 -30 10 -13 -26
-38 -42 -28 -5 3 -11 1 -15 -5 -4 -6 8 -10 29 -10 21 0 36 5 36 12 0 9 3 9 12
0 10 -10 10 -15 -2 -23 -13 -8 -12 -11 5 -24 10 -9 27 -39 37 -68 l18 -52 -5
55 c-3 36 -11 60 -22 70 -31 26 -26 55 14 74 33 16 34 18 19 35 -13 14 -14 20
-3 35 17 24 63 18 59 -7 -2 -9 4 -24 13 -33 8 -9 13 -20 10 -25 -4 -5 -2 -16
3 -24 7 -14 10 -13 26 4 17 18 16 20 -5 40 -15 13 -18 21 -9 21 9 0 7 7 -7 23
-19 20 -20 23 -5 37 14 13 15 12 9 -3 -3 -9 -3 -17 2 -17 12 0 41 35 41 48 0
15 13 15 28 0 17 -17 15 -33 -2 -19 -11 9 -15 8 -20 -5 -9 -23 -8 -24 15 -24
11 0 27 7 36 15 19 20 48 15 47 -8 -2 -21 0 -21 21 0 14 14 18 14 26 2 5 -8 7
-20 4 -28 -3 -8 0 -11 8 -8 15 6 67 -37 67 -55 0 -10 -17 0 -49 30 -8 8 -24
11 -36 8 -16 -4 -25 -1 -29 11 -6 14 -9 15 -15 4 -6 -8 -10 -2 -15 20 -7 35
-14 35 -21 0 -2 -11 1 -21 6 -21 6 0 7 -9 4 -20 -8 -25 22 -40 37 -19 7 10 8
6 4 -13 -4 -18 -2 -28 5 -28 6 0 9 -7 6 -14 -4 -9 2 -17 14 -21 16 -5 18 -10
8 -21 -7 -9 -8 -14 -1 -14 17 0 20 24 5 47 -13 19 -12 22 6 28 12 3 21 11 21
17 0 6 3 8 6 5 4 -4 2 -13 -4 -20 -9 -10 -9 -21 0 -44 6 -16 8 -38 5 -47 -7
-17 -10 -16 -43 3 -38 23 -59 27 -49 11 3 -6 -5 -10 -19 -10 -18 0 -24 -4 -20
-15 4 -8 1 -15 -5 -15 -6 0 -11 5 -11 10 0 6 -4 10 -9 10 -5 0 -3 -13 5 -30 9
-16 20 -30 26 -30 5 0 18 -10 28 -22 10 -13 22 -19 27 -15 4 5 -1 15 -11 23
-17 12 -17 14 -3 14 10 0 14 5 11 14 -3 8 -12 12 -20 9 -9 -3 -14 2 -14 15 0
29 35 38 66 17 30 -19 26 -32 -5 -15 -15 7 -21 7 -21 0 0 -6 6 -13 14 -16 8
-3 12 -12 9 -21 -4 -9 -1 -13 8 -12 25 5 57 -11 62 -32 5 -17 3 -18 -9 -8 -11
9 -18 8 -32 -5 -10 -9 -21 -14 -24 -11 -3 3 -8 -1 -11 -9 -4 -9 -1 -18 5 -22
7 -5 8 -2 3 7 -4 8 1 5 12 -6 16 -15 18 -23 9 -34 -9 -12 -12 -12 -14 2 -2 10
-10 17 -18 17 -8 0 -14 5 -14 10 0 6 -7 10 -16 10 -9 0 -14 -6 -11 -12 2 -7
10 -13 18 -13 8 0 14 -7 14 -15 0 -10 9 -14 29 -13 34 3 37 5 39 33 1 12 9 26
18 31 13 6 16 4 15 -8 -1 -12 8 -17 32 -19 26 -1 32 2 32 18 0 10 -9 29 -21
41 -19 20 -20 20 -13 2 4 -11 12 -23 18 -27 14 -10 2 -20 -15 -13 -8 3 -16 15
-16 28 -1 12 -7 23 -12 25 -5 2 -7 10 -4 19 4 10 2 14 -4 10 -13 -8 -46 39
-38 53 8 13 35 13 35 1 0 -5 -5 -11 -12 -13 -6 -2 -8 -10 -4 -16 10 -17 26 -5
26 19 0 10 4 19 9 19 13 0 22 -28 11 -35 -13 -8 -13 -45 0 -45 6 0 16 11 22
25 12 28 23 31 35 13 10 -17 13 -67 3 -73 -14 -9 1 -43 21 -48 10 -3 19 -1 19
3 0 5 3 17 6 27 5 17 5 17 -9 0 -12 -14 -16 -15 -26 -4 -12 15 -5 27 16 27 8
0 23 8 33 18 18 16 18 21 6 38 -14 19 -14 19 -13 -1 1 -12 -3 -19 -12 -17 -8
2 -11 -3 -8 -13 4 -8 2 -15 -3 -15 -13 0 -13 37 0 42 7 2 4 16 -6 38 -14 28
-18 31 -24 16 -5 -15 -8 -14 -18 9 -7 14 -12 30 -12 35 0 16 41 6 51 -12 5
-10 16 -18 24 -18 20 0 19 -17 -2 -29 -15 -9 -10 -11 22 -11 22 0 48 0 57 -1
9 0 29 -16 44 -35 25 -30 55 -49 39 -24 -3 6 -2 10 3 10 21 0 17 -13 -15 -46
-19 -20 -36 -34 -37 -32 -2 1 -8 12 -14 23 -10 18 -11 17 -12 -12 0 -23 -5
-33 -15 -33 -17 0 -20 16 -5 25 6 4 8 15 5 26 -7 20 18 28 30 9 9 -14 25 -12
25 3 0 7 -9 19 -20 27 -11 8 -20 21 -20 30 -1 10 -5 7 -13 -8 -7 -12 -16 -20
-19 -16 -4 3 -7 -2 -6 -12 0 -11 0 -23 -2 -29 -1 -5 -2 -23 -1 -39 1 -25 4
-28 26 -23 19 3 29 -1 37 -17 9 -17 8 -19 -3 -8 -20 19 -27 15 -25 -18 1 -18
10 -36 22 -45 21 -14 37 -60 25 -68 -3 -2 0 -2 7 -1 14 4 15 -5 3 -25 -7 -11
-13 -7 -25 17 -9 17 -13 38 -10 46 3 9 1 16 -5 16 -12 0 -13 -2 -16 -40 -1
-14 -5 -35 -9 -47 -6 -18 -3 -23 18 -29 28 -7 34 -19 14 -28 -9 -3 -8 -8 5
-16 22 -14 13 -30 -13 -25 -11 2 -20 0 -20 -6 0 -9 13 -12 42 -10 10 1 23 -10
32 -27 8 -16 22 -32 30 -35 9 -4 13 -13 10 -21 -10 -25 4 -36 32 -26 21 8 25
7 23 -8 -3 -36 1 -52 16 -52 7 0 19 8 25 18 11 16 11 16 6 0 -7 -23 42 -38 55
-17 13 20 30 -9 22 -38 -3 -13 -1 -23 5 -23 6 0 12 -6 15 -12 2 -7 2 -3 0 10
-2 14 2 22 12 23 8 1 20 3 25 4 6 1 15 3 22 4 7 0 4 7 -7 14 -12 9 -14 16 -7
21 15 9 31 -24 38 -79 6 -38 4 -45 -10 -45 -14 0 -14 -3 -4 -20 11 -17 10 -22
-1 -29 -7 -5 -10 -14 -6 -20 4 -7 1 -18 -5 -26 -13 -16 -5 -35 14 -35 8 0 16
-9 19 -20 3 -11 13 -20 22 -20 17 0 14 11 -15 45 -18 21 -33 65 -22 65 7 -1
62 -110 62 -122 0 -5 -9 -8 -20 -8 -14 0 -18 -5 -14 -17 4 -11 3 -14 -3 -7 -4
7 -17 14 -28 17 -17 4 -16 5 5 6 l25 1 -29 25 c-21 18 -30 35 -31 60 -1 20 -5
38 -8 42 -4 3 4 14 16 24 19 16 20 18 5 19 -25 0 -23 27 2 35 23 7 26 28 6 44
-18 15 -32 -4 -17 -23 8 -10 3 -17 -24 -32 -19 -10 -35 -22 -35 -27 0 -4 -4
-5 -10 -2 -5 3 -10 11 -10 16 0 6 4 8 9 5 18 -11 17 18 -1 53 -25 49 -36 58
-44 35 -10 -28 -25 -44 -35 -38 -5 3 0 15 11 26 18 20 18 22 2 34 -9 7 -19 8
-20 3 -2 -5 -8 -7 -13 -3 -5 3 -9 0 -9 -5 0 -6 5 -11 11 -11 8 0 8 -4 0 -14
-9 -11 -10 -20 -2 -35 11 -19 9 -20 -27 -18 -23 1 -47 -5 -57 -13 -17 -14 -18
-13 -12 3 4 10 7 23 7 28 0 4 13 12 30 16 22 6 27 12 21 22 -8 12 -13 12 -35
-3 -15 -9 -31 -14 -36 -11 -14 9 -1 27 13 19 8 -5 8 -3 0 7 -19 19 -41 -4 -24
-25 10 -12 8 -19 -8 -35 -26 -26 -27 -34 -1 -26 12 4 20 2 20 -5 0 -6 -4 -8
-10 -5 -5 3 -10 -1 -10 -9 0 -8 4 -18 10 -21 6 -4 5 -13 -3 -26 -10 -17 -9
-22 6 -33 9 -7 17 -22 18 -32 0 -18 1 -18 9 1 13 31 12 45 -5 45 -8 0 -15 5
-15 10 0 19 42 51 63 48 12 -1 28 1 35 5 7 5 12 3 12 -7 0 -9 -6 -17 -12 -17
-7 -1 -19 -2 -27 -3 -23 -2 -38 -33 -22 -48 11 -11 12 -9 7 8 -5 15 -2 21 11
21 10 0 24 -4 31 -10 8 -6 17 -6 26 2 10 9 16 8 26 -3 6 -9 9 -20 5 -26 -3 -5
2 -10 12 -10 12 0 19 7 19 19 0 11 -3 18 -6 16 -3 -2 -19 7 -36 21 -19 17 -25
27 -16 30 6 3 12 10 12 15 0 6 -4 7 -10 4 -5 -3 -7 0 -4 9 8 21 33 28 27 8 -5
-20 21 -75 31 -65 3 3 -1 17 -10 31 -10 15 -12 28 -6 34 11 11 32 -40 32 -76
0 -12 4 -26 10 -32 11 -11 2 -54 -11 -54 -5 0 -9 5 -9 10 0 6 -6 10 -13 10 -9
0 -12 -10 -9 -30 3 -18 0 -30 -7 -30 -6 0 -11 12 -11 26 0 22 -2 25 -15 14 -8
-7 -15 -19 -15 -27 0 -12 -3 -13 -14 -3 -8 6 -12 18 -10 25 7 16 -25 34 -46
27 -23 -8 -38 -33 -32 -54 4 -18 5 -18 24 2 24 25 34 25 48 0 10 -19 9 -20
-20 -15 -17 3 -30 1 -30 -5 0 -19 -2 -25 -10 -35 -4 -5 1 -19 12 -30 18 -19
19 -19 12 -1 -5 14 -4 17 4 12 7 -4 12 -14 12 -22 0 -8 5 -14 10 -14 6 0 10 4
10 10 0 5 7 7 16 3 18 -7 39 18 22 28 -5 3 -8 15 -5 25 3 15 7 12 17 -13 12
-34 24 -41 35 -23 3 6 2 10 -4 10 -6 0 -8 7 -5 15 4 8 1 15 -5 15 -6 0 -11 5
-11 12 0 6 9 3 20 -7 19 -17 20 -17 21 1 1 10 1 25 0 32 -1 6 3 12 9 12 6 0
10 -8 8 -17 -5 -25 30 -57 46 -44 9 7 16 7 24 -1 9 -9 12 -9 12 2 0 11 2 12
13 1 10 -10 8 -15 -7 -26 -16 -12 -17 -16 -3 -35 8 -12 13 -30 10 -40 -5 -20
-33 -36 -33 -20 0 6 5 10 10 10 6 0 10 10 10 23 0 15 -3 18 -8 9 -5 -7 -16
-10 -25 -7 -12 5 -15 1 -13 -20 4 -28 -11 -29 -28 -2 -8 13 -7 20 4 27 8 5 10
10 5 10 -6 0 -11 9 -12 20 -2 27 15 25 27 -2 5 -13 9 -17 9 -10 1 7 6 10 11 7
6 -3 10 3 10 14 0 11 -5 23 -10 26 -6 4 -10 3 -9 -2 4 -23 -3 -25 -18 -4 -15
23 -17 23 -29 6 -10 -14 -11 -22 -3 -32 8 -8 8 -13 1 -13 -6 0 -12 4 -14 10
-2 6 -13 4 -28 -3 -20 -11 -24 -20 -22 -45 2 -29 -4 -36 -29 -34 -14 2 0 -43
14 -46 9 -2 17 -13 17 -24 0 -11 -5 -18 -12 -15 -7 2 -18 -2 -23 -10 -9 -11
-13 -11 -30 2 -14 11 -16 18 -8 21 10 4 9 9 -3 21 -8 8 -18 12 -22 8 -4 -4 -2
-10 4 -12 7 -2 10 -12 7 -23 -3 -10 0 -27 6 -37 8 -14 11 -14 11 -3 0 13 2 13
10 0 8 -12 11 -12 27 1 20 17 54 33 66 31 22 -5 -9 41 -35 51 -10 3 -18 11
-18 17 0 14 13 13 29 -2 10 -11 11 -8 6 15 -5 17 -2 33 5 42 11 13 10 14 -5 9
-12 -5 -16 -4 -12 3 4 6 18 11 33 11 14 0 22 -3 18 -7 -18 -13 -34 -50 -24
-56 6 -3 7 -17 4 -30 -3 -13 0 -26 6 -30 9 -5 10 -1 5 14 -7 23 4 28 23 9 16
-16 15 -28 -3 -28 -8 0 -15 -5 -15 -11 0 -6 6 -9 14 -6 8 3 17 -1 20 -9 10
-27 23 -5 19 32 -3 26 0 35 9 32 17 -6 22 -46 8 -63 -6 -8 -9 -19 -5 -25 4 -6
1 -9 -5 -8 -8 2 -13 -10 -14 -30 0 -17 2 -32 7 -32 4 0 7 9 7 19 0 11 9 26 21
34 12 9 16 18 10 21 -5 4 -8 13 -4 22 3 8 6 27 7 42 0 15 5 28 10 29 15 2 26
27 20 44 -5 19 23 52 37 43 14 -8 39 15 39 37 0 11 5 19 11 19 5 0 7 5 4 10
-3 6 -1 10 4 10 6 0 11 11 11 25 0 14 4 25 8 25 5 0 8 10 8 22 -1 15 6 23 19
26 12 2 16 0 9 -5 -6 -4 -14 -24 -17 -43 -16 -87 -17 -95 -7 -80 7 11 10 7 10
-17 0 -24 4 -30 18 -28 9 2 19 4 21 4 2 1 -4 10 -13 20 -26 29 -16 47 13 22
12 -11 20 -25 16 -30 -3 -7 3 -11 14 -11 24 0 29 28 9 48 -9 9 -9 12 0 12 7 0
12 -4 12 -10 0 -5 5 -10 11 -10 6 0 9 7 5 15 -7 18 1 19 18 2 15 -15 10 -37
-10 -37 -8 0 -14 -10 -14 -22 0 -28 11 -43 30 -43 8 0 16 -7 18 -16 2 -12 -9
-19 -38 -27 -49 -12 -80 -6 -80 17 0 12 2 13 8 3 10 -15 54 -10 60 6 2 7 -2
12 -8 12 -7 0 -10 8 -7 19 3 14 1 18 -9 14 -8 -3 -14 -13 -15 -22 0 -12 -2
-12 -9 4 -5 11 -9 14 -9 7 -1 -8 -10 -11 -26 -8 -14 3 -25 0 -25 -6 0 -5 7 -8
15 -4 9 3 15 0 15 -8 0 -9 -7 -12 -20 -9 -13 4 -20 14 -20 31 0 25 0 25 -16 6
-15 -18 -15 -18 -9 4 4 15 2 22 -8 22 -10 0 -13 -8 -10 -24 6 -27 -14 -45 -23
-22 -6 15 -44 23 -44 10 0 -9 30 -36 30 -27 0 4 5 1 10 -7 9 -13 12 -13 24 3
19 25 26 21 20 -12 -4 -17 0 -41 10 -59 13 -24 13 -36 4 -63 l-11 -32 -19 23
c-17 21 -17 25 -4 32 8 5 13 15 10 23 -4 8 -10 12 -15 9 -5 -3 -9 0 -9 6 0 7
-6 10 -14 7 -20 -8 -39 16 -25 30 6 6 8 17 3 24 -5 9 -10 6 -16 -10 -6 -17 -3
-31 12 -51 12 -17 16 -31 11 -35 -6 -3 -16 3 -23 15 -7 11 -16 20 -20 20 -11
0 3 -63 18 -80 9 -11 10 -20 2 -33 -5 -10 -7 -24 -5 -31 3 -7 1 -19 -3 -26 -7
-11 -11 -11 -24 -1 -21 18 -20 5 2 -23 15 -19 20 -21 30 -9 7 7 12 29 10 48
-2 19 2 34 7 34 6 0 9 -7 7 -15 -2 -8 2 -14 7 -14 6 0 8 -7 5 -15 -4 -8 -1
-15 4 -15 6 0 9 13 7 29 -5 42 19 30 33 -16 9 -28 8 -40 -4 -58 -8 -12 -13
-36 -11 -54 4 -36 36 -75 44 -53 5 13 43 17 43 5 -1 -18 -18 -35 -24 -24 -11
18 -25 3 -20 -22 2 -12 1 -16 -2 -7 -4 8 -18 25 -31 38 -14 12 -22 29 -20 37
6 15 -16 28 -53 30 -26 2 -40 -10 -40 -34 0 -11 4 -9 15 5 13 17 14 16 9 -23
-6 -45 9 -60 21 -23 4 11 11 18 16 14 5 -3 7 -15 3 -26 -5 -17 -3 -19 15 -13
27 8 28 -11 1 -25 -27 -14 -25 -44 3 -57 20 -10 20 -12 4 -18 -12 -5 -23 -1
-35 12 -22 24 -52 19 -45 -8 3 -10 0 -19 -6 -19 -27 0 -7 -18 24 -22 26 -3 35
0 35 11 0 11 4 10 15 -5 9 -12 14 -14 15 -6 0 7 4 11 9 8 11 -7 24 41 15 55
-3 6 -12 8 -20 5 -20 -8 -17 -1 12 31 l25 27 -10 -27 c-9 -22 -8 -29 4 -33 8
-3 17 -21 21 -40 3 -19 10 -34 15 -34 14 0 11 38 -3 44 -10 5 -10 7 0 12 6 3
12 24 12 46 0 35 2 39 15 28 15 -13 21 -35 8 -27 -5 3 -8 -26 -8 -64 0 -51 3
-68 12 -64 7 2 13 0 13 -6 0 -6 6 -9 14 -6 8 3 17 0 19 -7 3 -7 15 -16 26 -19
12 -3 19 -1 16 3 -3 5 1 10 7 13 10 3 10 7 1 17 -6 7 -9 19 -6 26 3 8 -1 14
-11 14 -9 0 -16 5 -16 10 0 6 7 10 15 10 8 0 15 6 16 13 0 6 5 1 11 -13 10
-24 10 -24 18 -5 7 16 8 14 7 -11 -1 -21 -6 -30 -14 -27 -7 3 -13 0 -13 -6 0
-15 37 -14 44 2 2 6 4 3 4 -8 -3 -49 3 -66 25 -74 13 -5 25 -5 28 1 3 5 9 1
13 -9 7 -16 9 -16 20 6 l13 24 22 -22 c11 -11 21 -27 21 -34 0 -8 19 -22 43
-32 23 -9 50 -21 59 -26 11 -5 18 -4 21 4 3 7 6 5 6 -5 1 -9 6 -20 12 -24 8
-4 9 1 5 17 -3 13 -3 18 0 12 9 -21 24 -15 24 9 0 17 3 19 11 11 9 -9 8 -18
-4 -37 -14 -21 -14 -25 -2 -30 10 -3 15 1 16 12 0 13 3 12 11 -6 12 -25 106
-82 138 -85 11 -1 20 -5 20 -10 0 -4 4 -5 10 -2 6 4 5 13 -2 25 -9 14 -15 16
-21 7 -6 -9 -7 -8 -4 3 5 20 37 26 37 7 0 -8 7 -17 15 -21 8 -3 15 -10 15 -16
0 -5 -7 -10 -15 -10 -23 0 -18 -16 12 -36 15 -9 52 -37 81 -61 30 -24 57 -42
59 -39 3 3 15 -6 26 -20 10 -14 25 -23 32 -20 7 2 15 -5 19 -16 4 -19 7 -20
22 -7 12 9 15 10 10 2 -4 -7 -4 -18 0 -25 5 -8 9 -7 13 5 4 12 10 14 21 7 12
-8 13 -11 1 -19 -10 -6 -5 -13 20 -25 34 -17 48 -10 49 24 0 13 1 13 10 0 6
-9 5 -17 -2 -21 -19 -12 -2 -33 47 -59 35 -18 49 -22 52 -12 6 15 33 16 33 1
0 -5 -4 -7 -10 -4 -5 3 -10 0 -10 -9 0 -21 77 -79 96 -72 12 4 15 2 10 -9 -3
-9 0 -15 9 -15 8 0 15 7 15 16 0 8 5 12 10 9 8 -5 7 -12 -1 -22 -14 -16 -11
-19 42 -48 25 -13 40 -26 125 -107 23 -21 33 -26 37 -16 3 7 6 4 6 -8 1 -12
15 -32 32 -45 38 -29 89 -106 114 -172 10 -26 24 -51 31 -55 7 -4 12 -14 11
-22 -2 -16 28 -126 41 -150 5 -8 8 -39 8 -67 -1 -52 16 -70 22 -25 2 12 8 20
13 17 12 -8 12 -55 -1 -55 -5 0 -10 -9 -10 -19 0 -25 70 -181 81 -181 5 0 6
-7 3 -15 -4 -8 -1 -15 6 -15 6 0 8 -5 5 -10 -4 -6 -1 -18 6 -26 7 -9 8 -18 3
-23 -17 -15 -71 -29 -84 -21 -10 6 -9 9 1 12 9 3 5 13 -14 32 -20 20 -25 31
-18 40 14 17 -49 79 -71 71 -9 -4 -19 -2 -23 4 -3 6 -17 8 -31 5 l-25 -6 15
37 c9 21 16 39 16 41 0 2 15 11 33 19 l32 14 -40 -5 c-22 -3 -48 -8 -57 -11
-40 -10 -14 6 51 32 69 27 88 48 70 76 -6 10 -9 8 -9 -7 0 -17 -8 -23 -34 -28
-18 -4 -41 -4 -50 0 -11 4 -16 2 -14 -7 2 -8 -3 -14 -11 -14 -9 0 -19 21 -28
60 -27 117 -33 135 -51 136 -17 1 4 9 59 22 25 6 27 4 43 -56 9 -34 18 -72 19
-84 1 -24 27 -33 27 -10 0 6 -9 45 -20 86 -23 86 -25 100 -9 84 11 -11 38
-105 41 -145 2 -19 7 -24 21 -20 14 4 16 7 5 13 -11 7 -10 9 1 9 12 0 12 2 -1
13 -18 14 -31 47 -19 47 4 0 4 20 -2 45 -6 25 -14 45 -18 45 -4 0 -6 14 -5 30
1 17 -1 30 -5 30 -4 0 -9 10 -13 23 -3 13 -15 34 -27 48 -11 13 -31 35 -43 49
-26 31 -102 85 -135 95 -14 4 -61 25 -105 46 -44 22 -85 39 -91 39 -7 0 -26 7
-43 15 -63 32 -220 68 -273 63 -21 -2 -39 1 -39 6 0 17 205 -3 255 -25 27 -12
57 -18 70 -15 14 4 25 1 28 -7 5 -13 155 -97 173 -97 14 0 -40 41 -63 46 -12
4 -20 10 -17 15 3 5 -1 9 -10 9 -8 0 -17 6 -19 13 -4 9 -8 8 -17 -3 -10 -13
-11 -13 -6 2 4 13 1 15 -11 11 -10 -4 -14 -2 -10 4 15 23 -106 62 -228 73
l-80 7 103 2 c88 1 109 -2 151 -22 59 -29 172 -97 186 -112 14 -16 66 -47 70
-43 3 2 -15 25 -39 50 -24 26 -46 44 -50 41 -3 -4 -6 -1 -6 5 0 12 -111 92
-169 122 -46 23 -169 55 -278 71 -46 7 -80 15 -77 18 3 3 9 6 12 6 4 0 12 3
17 7 6 3 27 0 49 -7 21 -7 50 -16 65 -19 50 -12 -1 13 -69 33 -81 24 -136 29
-152 13 -6 -6 -17 -12 -23 -12 -24 0 -72 -42 -308 -269 l-87 -84 -29 27 c-16
16 -27 35 -24 42 3 8 0 14 -7 14 -6 0 -8 5 -4 11 4 8 9 7 15 -2 6 -11 18 -4
51 27 215 205 258 248 258 258 0 12 -64 66 -78 66 -4 0 -63 -53 -130 -117 -67
-65 -139 -134 -160 -154 l-40 -37 -28 19 c-44 29 -53 22 -14 -11 19 -16 31
-30 25 -30 -5 0 -23 11 -40 25 l-30 25 173 167 c95 93 173 172 172 176 0 5 -4
5 -10 2 -5 -3 -10 1 -10 9 0 11 -10 16 -27 17 l-28 1 30 9 c16 4 44 11 63 14
33 5 82 31 82 44 0 4 -42 12 -94 19 -89 11 -247 57 -311 90 -25 13 -85 22
-158 23 -9 0 -15 4 -12 9 3 5 -7 12 -22 16 -15 3 -35 8 -43 11 -8 4 -19 5 -24
4 -5 -1 -12 3 -16 8 -3 6 -21 14 -40 17 -27 6 -32 4 -28 -7 5 -12 -6 -15 -56
-15 -65 -1 -119 -7 -178 -22 -30 -8 -38 -7 -38 4 0 8 -5 14 -11 14 -8 0 -7 6
2 17 8 10 9 14 2 10 -6 -4 -14 -3 -18 3 -6 9 7 14 28 11 4 0 7 4 7 9 0 6 6 10
13 8 6 -1 22 3 34 10 12 7 34 13 48 14 14 1 32 9 38 17 10 12 9 14 -4 9 -9 -4
-16 -1 -16 6 0 8 9 11 24 8 13 -2 23 -2 23 1 0 12 -33 37 -48 37 -13 0 -14 -2
-4 -9 11 -7 11 -9 -2 -14 -9 -4 -22 -4 -30 -1 -8 3 -17 0 -21 -6 -4 -7 -15 -2
-31 15 -28 30 -29 35 -10 35 27 0 26 28 -2 36 -33 10 -132 11 -126 2 2 -3 -10
-10 -28 -13 -18 -4 -40 -12 -48 -17 -18 -13 38 39 74 67 18 14 22 23 14 32
-14 18 -46 -1 -54 -32 -3 -14 -10 -23 -14 -20 -4 3 -10 -2 -14 -10 -3 -8 -10
-15 -15 -15 -6 0 -8 7 -5 15 4 8 1 15 -5 15 -6 0 -11 4 -11 10 0 5 6 7 13 4 9
-3 13 5 12 23 0 17 5 27 13 25 6 -1 12 2 12 8 0 15 -36 12 -50 -5 -7 -8 -25
-15 -41 -15 -16 0 -29 -5 -29 -10 0 -6 -8 -14 -17 -17 -10 -4 -40 -20 -67 -36
-46 -26 -50 -27 -65 -11 -15 15 -14 16 5 6 16 -9 22 -7 32 9 17 26 6 42 -19
29 -15 -8 -19 -7 -19 4 0 8 5 18 10 21 6 3 10 13 10 22 0 15 -2 14 -18 0 -24
-22 -32 -13 -32 34 0 41 14 52 45 36 17 -9 18 -8 7 5 -11 14 -9 19 14 37 15
12 30 21 35 21 4 0 19 10 31 23 28 26 36 77 12 77 -27 0 -10 22 34 44 37 19
59 42 48 53 -6 6 -128 -68 -155 -94 -13 -13 -36 -26 -50 -30 -14 -3 -38 -15
-53 -25 -30 -21 -37 -16 -13 8 8 9 15 13 15 10 0 -3 8 2 19 12 10 9 38 28 61
42 100 59 131 81 125 90 -3 5 0 7 8 4 20 -7 29 22 11 36 -14 12 -91 16 -101 6
-7 -6 -63 25 -63 35 0 4 -16 7 -35 7 -23 0 -33 -4 -29 -11 4 -8 2 -7 -7 1 -7
6 -17 12 -22 12 -5 0 9 -21 32 -47 72 -83 70 -81 58 -86 -7 -3 -29 -13 -50
-22 -22 -9 -36 -11 -32 -6 7 13 -20 4 -51 -16 -11 -7 -23 -10 -26 -7 -4 3 -16
1 -27 -6 -33 -17 -25 4 9 23 25 15 28 21 18 36 -6 11 -17 17 -24 14 -6 -2 -15
1 -19 6 -3 6 -12 8 -18 5 -7 -4 -9 -4 -5 0 4 5 -5 20 -19 34 -14 14 -39 55
-56 91 -24 52 -32 61 -38 45 -3 -10 -3 -23 1 -29 14 -19 19 -59 9 -71 -7 -8
-6 -15 2 -20 7 -4 18 1 26 11 11 16 13 16 13 3 0 -9 -7 -19 -16 -22 -22 -8
-141 36 -196 73 -88 59 -134 73 -229 69 -67 -3 -97 -10 -141 -31 -30 -15 -60
-27 -65 -27 -15 0 -223 -127 -251 -152 -14 -14 -21 -30 -18 -42 3 -10 -6 -40
-20 -66 -35 -67 -44 -186 -17 -232 10 -18 30 -60 43 -93 31 -77 40 -94 68
-130 13 -17 38 -55 55 -85 l33 -55 -23 -40 c-53 -93 -6 -121 104 -60 l65 37
54 -58 c32 -35 56 -72 60 -92 4 -23 38 -67 105 -142 l99 -109 -19 -48 c-10
-27 -22 -78 -26 -115 l-7 -66 -42 -7 c-86 -14 -220 -14 -251 0 -25 11 -26 14
-9 14 33 1 85 22 79 31 -3 5 8 5 24 0 29 -8 30 -8 20 18 -5 14 -17 31 -27 38
-12 9 -13 13 -4 14 10 0 10 3 -2 15 -17 17 -30 20 -21 5 3 -5 2 -10 -4 -10 -5
0 -11 6 -14 13 -2 6 -7 9 -11 6 -4 -4 1 -15 11 -25 10 -11 16 -18 14 -16 -3 1
-15 -5 -29 -14 -13 -9 -21 -11 -18 -5 6 9 -17 16 -27 9 -2 -2 -12 3 -21 11
-13 11 -14 16 -4 24 9 6 8 7 -4 3 -10 -3 -46 10 -82 29 -65 34 -82 34 -70 -2
4 -11 -4 -7 -20 12 l-27 30 26 -53 c15 -30 25 -56 22 -58 -5 -6 -49 75 -68
126 -9 25 -20 53 -24 64 -8 18 -7 18 18 1 14 -9 45 -23 69 -30 24 -7 52 -17
62 -21 18 -7 18 -6 -2 14 -11 11 -53 32 -92 46 -78 28 -83 30 -77 19 4 -7 -41
-8 -96 -4 -5 1 -5 22 -2 49 10 74 15 83 38 81 33 -3 78 12 74 25 -2 6 -20 10
-43 8 l-39 -3 26 23 c15 13 30 34 34 48 10 34 64 130 88 157 l20 23 -27 64
c-15 35 -34 72 -42 83 -13 17 -14 16 -8 -12 5 -29 5 -29 -10 -10 -67 86 -95
115 -121 126 -34 15 -57 34 -49 42 3 2 -5 7 -18 10 -13 4 -27 16 -33 29 -7 17
-21 25 -50 29 -22 3 -34 7 -27 8 6 0 12 8 12 16 0 10 10 15 27 15 24 0 25 2
11 18 -8 9 -19 28 -25 42 -13 31 -121 100 -156 100 -14 0 -55 -9 -92 -21 -42
-13 -80 -18 -100 -15 -27 5 -33 3 -43 -19 -11 -25 -52 -42 -71 -30 -19 11 -12
27 9 20 20 -6 20 -5 -2 31 -12 21 -17 35 -11 31 26 -16 80 -18 93 -2 10 13 9
15 -6 16 -105 6 -187 31 -178 54 4 9 -4 16 -23 20 -68 15 -114 28 -119 36 -8
14 134 -3 171 -20 11 -5 43 -14 70 -20 28 -6 60 -13 71 -17 19 -5 26 3 54 60
35 70 35 107 1 126 -11 5 -61 17 -113 25 -116 19 -280 61 -333 85 -22 10 -76
34 -120 52 -78 34 -235 135 -305 198 -35 32 -22 32 15 0 69 -60 163 -113 257
-145 56 -20 128 -49 158 -66 115 -63 161 -80 262 -99 56 -11 106 -20 109 -20
7 0 22 61 34 132 7 47 -10 149 -36 207 -21 49 -79 130 -93 131 -4 0 6 -16 23
-35 17 -20 31 -41 31 -47 0 -12 -55 60 -59 77 -1 6 -10 18 -18 28 -19 20 -123
91 -127 85 -2 -1 -6 -13 -10 -24 -5 -18 2 -27 46 -55 67 -41 98 -69 98 -86 0
-10 -7 -8 -22 7 -23 21 -38 26 -38 12 0 -6 -44 -8 -60 -2 -3 1 -12 3 -20 4 -8
0 -19 11 -26 23 -6 13 -14 20 -17 16 -9 -8 -8 29 2 90 9 54 4 61 -34 47 -14
-5 -24 -6 -21 -1 7 11 -121 35 -149 28 -13 -3 -8 -5 15 -7 27 -1 19 -5 -35
-15 -38 -7 -72 -11 -74 -9 -2 2 12 10 30 19 l34 15 -55 -5 c-108 -11 -251
-109 -305 -209 -14 -26 -27 -35 -55 -40 -46 -7 -123 -73 -152 -129 -25 -49
-20 -122 14 -193 21 -46 21 -46 1 -66 -14 -13 -42 -22 -89 -28 -106 -13 -138
-32 -44 -25 112 8 289 9 297 2 3 -4 -28 -7 -71 -7 -71 0 -186 -13 -371 -42
-79 -12 -290 -112 -384 -183 l-54 -40 59 -5 c101 -9 375 63 569 150 l70 31
-50 -5 c-27 -3 -66 -7 -85 -10 -19 -3 -10 1 20 9 130 35 307 41 507 17 47 -6
64 -5 67 5 4 9 -7 13 -37 14 -40 1 -40 1 -13 9 16 5 58 7 92 5 38 -3 64 0 64
5 0 6 -7 11 -15 11 -8 1 -18 2 -22 3 -5 1 -57 8 -118 16 -103 14 -107 15 -70
24 80 17 232 18 317 1 75 -15 344 -113 335 -122 -2 -2 -23 4 -47 12 -43 15
-171 20 -201 7 -14 -6 -8 -20 36 -87 59 -88 63 -97 38 -88 -11 4 -14 3 -9 -5
4 -7 16 -12 26 -12 19 0 54 -39 45 -49 -3 -3 -12 5 -20 16 -10 14 -22 19 -35
16 -11 -3 -21 -1 -21 3 -1 5 -3 18 -4 29 -5 44 -60 137 -101 170 -41 34 -88
50 -66 23 5 -7 13 -24 17 -38 4 -14 19 -38 34 -54 l26 -30 -34 28 c-45 36 -71
70 -72 93 0 12 -5 8 -15 -14 -7 -17 -18 -34 -24 -38 -13 -8 -13 -3 1 31 l10
28 -26 -28 c-17 -19 -33 -26 -45 -23 -22 6 -28 -8 -7 -16 9 -4 9 -6 0 -6 -6
-1 -14 3 -17 8 -6 9 -105 -24 -116 -37 -3 -4 -28 -9 -57 -10 -41 -3 -58 1 -81
18 -63 47 -232 43 -372 -9 -51 -18 -89 -30 -213 -64 l-48 -13 43 -18 c24 -10
52 -22 63 -27 11 -6 43 -16 70 -24 28 -7 40 -14 27 -14 -12 -1 -48 8 -79 19
-65 23 -89 25 -54 6 l24 -13 -22 -13 c-13 -6 -25 -9 -29 -6 -3 3 0 6 6 6 7 0
12 5 12 12 0 6 -9 3 -20 -7 -11 -10 -20 -31 -20 -46 0 -32 16 -37 125 -42 46
-1 60 -6 60 -17 0 -8 16 -23 35 -32 19 -10 30 -18 23 -18 -6 0 -20 -3 -30 -6
-15 -5 -15 -4 -3 5 8 6 10 11 4 11 -6 0 -19 -9 -28 -19 -17 -18 -17 -19 1 -24
14 -4 13 -5 -5 -6 -12 0 -55 8 -94 19 -39 11 -73 18 -76 16 -6 -7 34 -25 75
-35 36 -8 36 -9 8 -10 -16 -1 -50 6 -75 15 -45 16 -47 16 -105 -11 -33 -15
-61 -22 -63 -17 -1 5 -24 8 -50 6 l-47 -4 44 14 c24 8 50 12 59 9 11 -5 13 -3
7 7 -6 10 -4 12 8 7 9 -3 19 -2 22 3 4 6 24 10 46 10 70 0 41 15 -63 34 -96
17 -113 17 -244 3 -134 -14 -144 -16 -189 -48 -62 -44 -105 -70 -105 -63 0 11
89 120 127 155 21 20 68 57 105 83 38 26 71 53 75 60 5 7 24 21 43 32 19 10
43 25 52 32 9 8 88 49 175 92 126 63 152 79 127 79 -76 2 -301 -71 -485 -157
l-87 -41 -48 -88 c-69 -126 -110 -214 -118 -248 -4 -18 -20 -39 -41 -53 -39
-27 -165 -152 -165 -164 0 -19 -4 -24 -31 -47 -16 -13 -29 -27 -29 -32 0 -4
-23 -43 -50 -86 -28 -43 -62 -101 -76 -130 -13 -28 -32 -57 -41 -65 -9 -7 -24
-26 -35 -43 -10 -16 -18 -23 -18 -15 -1 12 -3 11 -14 -3 -9 -11 -17 -14 -20
-8 -4 6 -13 8 -20 5 -7 -3 -16 2 -20 11 -3 9 -11 13 -18 9 -8 -5 -9 -2 -4 11
7 18 6 18 -13 1 -20 -18 -21 -18 -30 5 -9 21 -10 22 -11 4 -1 -19 -1 -19 -11
-1 -9 14 -8 20 2 27 7 4 17 5 21 3 4 -3 8 1 8 9 0 11 -17 13 -82 10 -45 -2
-97 -7 -116 -13 -51 -14 -191 -8 -201 9 -7 10 -9 11 -13 1 -5 -15 -58 -6 -58
10 0 6 3 9 8 8 13 -4 52 13 52 22 0 5 -7 7 -16 3 -11 -4 -15 -2 -12 7 5 16 46
21 55 7 4 -6 1 -7 -7 -2 -9 5 -11 4 -6 -4 5 -7 18 -11 29 -10 12 2 32 -2 44
-9 17 -10 22 -9 27 5 6 14 8 14 22 -3 10 -13 17 -15 20 -7 3 7 12 9 20 6 8 -3
14 -1 14 5 0 12 -29 24 -41 16 -5 -3 -9 0 -9 6 0 6 -4 8 -10 5 -6 -3 -10 1
-10 11 0 13 3 14 15 4 8 -6 19 -10 26 -8 6 2 -2 10 -17 18 -20 11 -28 12 -31
3 -3 -8 -12 -9 -26 -4 -24 8 -57 7 -81 -2 -9 -4 -16 -2 -16 3 0 5 26 14 58 20
31 7 90 23 130 37 60 20 78 23 105 14 17 -6 49 -13 71 -16 38 -4 38 -4 21 15
-10 11 -37 27 -62 36 -28 11 -40 20 -32 25 8 4 -2 14 -27 27 -24 12 -45 33
-55 54 -15 33 -15 78 1 78 4 0 11 10 14 23 6 22 87 77 134 92 27 8 92 62 92
76 0 5 -12 2 -28 -8 -26 -16 -26 -16 -10 2 9 10 27 19 40 20 18 1 23 8 23 29
1 15 13 39 28 56 l28 29 -68 32 c-99 45 -194 76 -257 84 -31 4 -56 11 -56 15
0 4 -30 14 -67 21 -38 7 -61 15 -52 16 19 5 177 -30 238 -52 70 -24 72 -23 64
45 -6 60 1 72 25 48 24 -24 11 8 -17 43 -16 19 -39 56 -51 82 -22 46 -61 87
-84 87 -14 0 -47 -36 -39 -43 9 -10 -38 -28 -57 -22 -10 3 -38 29 -62 57 -23
28 -56 60 -73 70 -23 15 -24 18 -7 13 26 -7 28 2 7 32 -25 35 -85 47 -153 29
-31 -8 -82 -14 -112 -15 -61 0 -190 -36 -190 -52 0 -6 -4 -7 -10 -4 -5 3 -54
-37 -107 -89 l-97 -96 -7 -61 c-7 -57 -11 -66 -62 -118 -153 -156 -138 -300
39 -383 l62 -29 -53 -50 c-29 -28 -77 -86 -105 -130 -29 -43 -56 -79 -61 -79
-8 0 -43 -26 -259 -190 -138 -106 -162 -139 -301 -420 -70 -140 -136 -283
-148 -318 -38 -111 -53 -281 -28 -313 7 -8 27 -24 45 -34 17 -11 32 -22 32
-26 0 -3 40 -12 89 -18 l89 -12 -11 -29 c-11 -29 -31 -40 -79 -40 -21 0 -25
-4 -21 -20 6 -21 -14 -53 -27 -45 -9 6 -7 45 3 61 6 10 -39 39 -55 36 -5 -1
-8 5 -8 14 0 8 -5 12 -10 9 -6 -4 -22 0 -35 9 -32 21 -32 21 -38 -20 -7 -41 0
-64 18 -64 7 0 15 -6 18 -12 2 -7 9 7 15 32 l11 45 -5 -47 c-5 -46 1 -54 46
-63 3 -1 14 -4 25 -7 11 -4 41 -9 66 -13 41 -5 47 -9 47 -30 0 -24 -4 -25 -59
-25 -61 0 -139 19 -139 33 0 5 -4 5 -10 2 -17 -11 -63 44 -57 68 3 12 9 51 13
87 l7 65 -33 -30 c-18 -16 -39 -43 -47 -60 -8 -16 -21 -42 -28 -56 -10 -18
-15 -71 -17 -181 l-3 -155 35 -73 c25 -52 31 -74 22 -77 -6 -3 -10 -9 -6 -14
7 -12 -7 -11 -26 1 -9 5 -19 5 -26 -1 -9 -8 -11 -5 -7 11 3 12 12 24 20 27 25
10 -19 32 -63 33 -35 0 -43 -4 -48 -22 -4 -18 -8 -20 -17 -11 -8 8 -18 9 -29
3 -9 -5 -22 -5 -29 -1 -24 15 -51 0 -51 -27 l0 -26 -16 22 c-14 21 -42 33 -30
13 4 -5 -2 -7 -13 -4 -24 6 -75 -20 -97 -49 l-16 -23 5 23 c6 27 -8 29 -23 3
-20 -39 -41 -51 -85 -51 -56 0 -76 -27 -50 -66 14 -22 20 -24 69 -18 48 6 55
4 79 -20 14 -14 32 -26 39 -26 8 0 6 5 -5 11 -23 14 -47 62 -47 96 0 32 16 21
24 -17 10 -58 45 -90 98 -90 13 0 40 -3 60 -6 34 -6 39 -10 48 -48 17 -64 17
-65 39 -59 25 6 25 10 6 43 -8 14 -14 30 -14 35 0 6 7 -2 15 -17 13 -25 36
-39 33 -21 -1 5 2 23 6 41 5 22 15 34 31 38 13 3 22 11 21 18 -1 7 20 13 58
16 54 5 63 2 92 -21 24 -21 50 -29 116 -39 47 -6 111 -10 141 -8 31 1 56 2 56
0 0 -1 -18 -25 -40 -53 -35 -44 -40 -58 -42 -107 -3 -72 -2 -106 2 -158 l4
-41 46 28 c48 30 65 36 56 20 -3 -5 1 -12 10 -15 8 -3 13 -10 10 -15 -10 -15
17 -29 64 -35 25 -2 47 -5 49 -5 2 -1 1 -8 -3 -16 -7 -18 10 -20 18 -2 3 6 3
2 0 -10 -3 -13 -1 -23 5 -23 6 0 11 4 11 10 0 5 7 7 15 4 19 -8 19 1 -1 32
-12 18 -22 23 -37 18 -17 -5 -18 -4 -6 9 14 15 39 12 39 -4 0 -5 12 -1 27 8
15 10 24 13 20 6 -4 -6 -3 -14 3 -18 5 -3 10 -2 10 3 0 6 7 13 16 16 12 5 15
2 12 -12 -6 -21 28 -26 36 -5 3 7 -1 10 -10 6 -15 -6 -18 5 -6 25 5 8 16 10
28 5 18 -6 18 -6 2 10 -21 22 -38 22 -38 0 -1 -16 -2 -16 -12 1 -8 15 -7 21 6
28 9 5 16 14 16 20 0 7 -5 6 -15 -2 -8 -7 -15 -9 -15 -4 0 5 -5 2 -10 -6 -8
-12 -9 -9 -8 12 1 15 7 26 12 25 6 -1 12 8 14 21 2 12 8 20 13 16 5 -3 7 -9 4
-14 -3 -4 4 -10 16 -13 14 -4 18 -2 11 6 -15 19 -10 45 10 50 13 4 18 0 18
-14 0 -13 -5 -17 -17 -12 -11 4 -14 3 -9 -5 14 -22 36 -13 37 16 1 15 3 20 6
10 2 -9 11 -19 20 -22 11 -5 14 -2 9 10 -3 8 -6 22 -6 30 0 9 -5 12 -12 8 -7
-4 -8 -3 -4 4 9 15 38 3 32 -14 -3 -8 1 -14 10 -14 8 0 13 4 10 8 -2 4 20 7
50 7 29 -1 59 2 66 6 7 4 18 0 25 -9 12 -16 13 -16 7 0 -3 10 -1 18 5 18 6 0
11 -7 11 -15 0 -8 5 -15 12 -15 6 0 8 3 5 7 -4 3 -2 12 5 20 8 10 8 12 -4 8
-8 -3 -21 2 -29 11 -12 16 -12 17 1 9 8 -5 22 -10 30 -10 19 0 25 -32 10 -50
-6 -8 -19 -11 -28 -8 -9 3 -5 -3 9 -13 14 -11 24 -24 22 -31 -2 -6 1 -14 6
-18 6 -3 11 -1 11 6 0 10 3 10 11 2 9 -9 16 -8 27 4 12 11 17 12 20 4 2 -7 -4
-18 -14 -26 -17 -12 -16 -13 8 -8 22 4 26 9 23 34 -2 16 0 31 6 34 5 4 9 -5 9
-19 0 -14 5 -26 10 -26 6 0 10 5 10 10 0 6 9 10 20 10 14 0 20 7 20 21 0 19 1
19 16 5 8 -9 24 -16 35 -16 17 0 19 -5 13 -35 -4 -25 -3 -35 6 -35 7 0 10 -8
7 -20 -3 -11 -1 -20 5 -20 6 0 7 -7 4 -16 -3 -9 -2 -12 5 -9 5 4 16 1 24 -5 9
-7 15 -8 15 -2 0 14 38 22 44 8 2 -6 4 -2 3 9 0 11 3 31 7 44 5 15 4 21 -2 17
-5 -3 -17 3 -26 13 -11 13 -14 21 -7 26 6 3 11 0 11 -7 0 -8 3 -9 8 -3 4 6 14
11 22 13 8 2 17 8 18 13 2 5 8 9 14 9 6 0 8 -7 4 -15 -3 -8 -2 -15 3 -15 4 0
8 -7 8 -15 0 -20 -14 -19 -26 3 -9 15 -10 15 -11 1 0 -16 19 -29 41 -29 6 0 9
12 8 27 -3 45 0 65 11 58 17 -11 32 5 20 20 -10 12 -7 12 14 2 30 -14 32 -20
9 -43 -11 -11 -18 -13 -21 -5 -6 18 -18 13 -19 -9 -1 -11 2 -18 8 -15 5 4 9 1
9 -6 0 -9 4 -8 15 1 8 6 20 10 27 7 8 -3 6 -6 -5 -6 -10 -1 -16 -5 -12 -10 11
-19 40 -7 41 16 1 13 -2 21 -6 18 -5 -3 -12 0 -16 6 -4 7 -3 9 4 5 5 -3 12 -1
14 5 3 9 9 9 25 1 16 -9 23 -9 26 1 4 9 6 9 6 -1 1 -10 6 -10 24 -2 20 10 21
10 4 -4 -11 -8 -27 -13 -38 -11 -10 2 -22 -1 -25 -7 -4 -7 -2 -8 4 -4 7 4 12
1 12 -8 0 -9 -5 -16 -12 -16 -6 0 -8 -3 -5 -6 4 -4 13 -1 22 6 9 7 18 10 22 6
3 -3 1 -6 -5 -6 -17 0 -15 -17 4 -39 10 -11 23 -17 30 -14 10 3 14 -3 14 -20
0 -13 7 -30 15 -37 13 -11 18 -10 30 6 11 16 16 17 27 6 11 -11 10 -12 -7 -6
-11 4 -17 4 -13 -1 4 -4 3 -14 -4 -22 -8 -10 -6 -19 13 -39 12 -13 29 -22 35
-20 7 3 15 1 18 -5 2 -5 3 -4 1 3 -1 7 -7 12 -13 11 -6 -2 -9 4 -6 12 4 10 2
13 -8 10 -9 -4 -14 1 -14 14 0 18 2 18 29 -5 16 -13 33 -24 38 -24 6 0 5 -8
-1 -21 -10 -18 -8 -22 20 -32 17 -6 28 -17 26 -23 -3 -7 2 -20 9 -31 8 -10 15
-14 15 -9 0 5 7 2 16 -5 14 -11 20 -10 40 14 26 31 34 33 34 12 0 -8 -5 -14
-12 -13 -6 2 -14 -6 -16 -17 -2 -11 -8 -24 -14 -30 -6 -6 -7 -4 -2 8 5 13 2
16 -10 11 -11 -4 -13 -11 -7 -23 6 -10 5 -24 0 -36 -10 -19 -9 -19 4 -3 16 21
31 24 24 5 -2 -6 1 -17 8 -24 10 -10 17 -7 29 10 10 15 14 16 10 4 -4 -12 -1
-17 11 -17 9 0 13 -5 9 -11 -3 -6 -14 -9 -24 -6 -11 3 -21 -2 -25 -12 -7 -19
-7 -21 3 -22 16 -2 42 -20 42 -30 0 -6 -3 -8 -8 -6 -4 3 -8 -10 -9 -27 -2 -24
2 -33 12 -33 11 0 12 4 5 11 -18 18 -11 27 8 9 11 -10 17 -21 15 -25 -2 -3 10
-12 27 -20 30 -13 44 -35 15 -24 -11 4 -15 -2 -15 -23 0 -16 -5 -31 -11 -33
-6 -2 -1 -12 10 -22 12 -11 21 -14 21 -8 0 7 -5 12 -11 12 -8 0 -8 5 1 15 20
24 33 18 27 -15 -5 -24 -4 -28 11 -23 14 5 15 3 5 -8 -18 -19 -16 -29 7 -29
12 0 17 5 14 14 -4 10 2 12 23 9 15 -3 40 -5 55 -4 21 0 26 -4 23 -19 -2 -11
1 -20 7 -20 6 0 8 -3 5 -6 -4 -4 -13 -2 -21 5 -11 9 -15 8 -19 -3 -9 -22 30
-26 56 -6 18 15 27 16 35 8 9 -9 15 -9 24 0 22 22 29 13 13 -17 -8 -16 -18
-31 -22 -33 -5 -3 -2 -3 5 -2 17 5 15 -6 -5 -30 -10 -12 -11 -15 -3 -9 20 19
48 16 61 -6 12 -18 12 -18 30 0 25 25 24 28 -3 22 -19 -5 -21 -3 -11 7 20 21
84 22 99 2 7 -9 10 -20 8 -24 -3 -5 1 -8 8 -8 9 0 9 -3 -2 -10 -10 -7 -11 -12
-4 -17 18 -13 22 -37 9 -50 -10 -9 -16 -9 -26 0 -10 10 -10 8 0 -6 12 -16 16
-16 36 -3 20 13 24 13 29 1 7 -19 26 -19 26 -1 0 8 9 24 20 37 l20 24 -9 -27
c-7 -19 -6 -28 3 -31 9 -4 12 0 9 11 -3 12 9 22 42 36 l46 18 -33 23 c-28 19
-34 20 -46 8 -18 -18 -21 -14 -15 19 4 20 13 29 34 33 16 4 29 11 29 16 0 6
-4 7 -10 4 -5 -3 -7 0 -4 9 3 8 13 17 21 20 12 5 13 3 5 -7 -6 -7 -7 -18 -2
-27 7 -11 13 -11 32 -3 l23 12 -25 1 -25 1 25 11 c24 10 24 10 5 18 -18 8 -17
10 13 21 17 8 32 17 32 21 0 4 11 8 24 8 14 0 28 5 31 10 3 6 -1 10 -10 10
-10 0 -13 5 -9 12 5 8 2 9 -9 5 -23 -9 -30 8 -9 25 46 40 110 45 181 16 14 -6
29 -11 33 -10 4 1 10 -7 13 -18 4 -11 11 -18 16 -15 5 4 9 -1 9 -9 0 -9 5 -16
10 -16 7 0 8 6 2 16 -10 18 -3 74 9 74 11 0 11 107 0 135 -10 25 -3 45 15 45
30 0 24 31 -16 89 -22 34 -44 61 -48 61 -16 1 -41 28 -47 51 l-6 25 70 -10
c39 -5 74 -7 77 -3 14 14 -9 58 -71 130 -46 54 -63 81 -58 93 4 11 3 15 -5 10
-6 -4 -19 5 -29 21 -20 32 -41 48 -63 48 -8 0 -15 5 -15 12 0 6 -3 15 -7 19
-5 4 -8 -5 -8 -20 0 -23 -4 -27 -20 -23 -11 3 -18 1 -14 -4 3 -5 1 -9 -5 -9
-5 0 -13 5 -16 11 -4 6 -13 8 -21 5 -8 -3 -14 0 -14 7 0 7 -13 22 -29 34 l-28
23 13 67 c13 65 12 69 -7 85 -20 17 -20 18 35 71 71 68 72 85 5 153 -40 40
-47 53 -35 57 10 4 16 1 16 -7 0 -14 31 -46 45 -46 5 0 -2 11 -14 24 -26 27
-38 95 -23 122 9 15 10 10 9 -26 -1 -55 24 -97 70 -116 18 -8 39 -26 47 -42
23 -45 51 -63 102 -66 122 -9 129 -12 220 -110 46 -50 104 -123 127 -163 32
-56 52 -78 87 -98 25 -14 58 -36 75 -49 28 -24 28 -26 12 -44 -20 -22 -23 -93
-5 -121 9 -15 8 -32 -2 -78 -20 -81 -14 -138 21 -200 21 -38 29 -66 29 -101 0
-67 27 -246 47 -312 16 -52 17 -53 31 -32 13 20 50 33 38 14 -3 -5 15 1 39 12
49 24 57 35 21 32 -13 0 -22 -4 -20 -8 3 -4 -5 -12 -16 -18 -13 -7 -20 -7 -20
0 0 5 5 10 12 10 6 0 8 3 5 6 -11 11 40 44 57 38 9 -3 13 -10 10 -15 -3 -5 -1
-9 4 -9 5 0 9 -7 9 -15 0 -8 -6 -15 -13 -15 -6 0 -14 -9 -17 -20 -3 -11 -10
-20 -16 -20 -6 0 -7 7 -4 17 4 10 2 14 -4 10 -12 -8 -14 -55 -3 -62 4 -3 10 2
14 10 3 8 11 15 18 15 9 0 10 -3 2 -8 -19 -12 -35 -50 -25 -57 6 -3 17 7 25
22 10 19 15 22 16 11 0 -9 -5 -20 -10 -23 -6 -4 -7 -11 -4 -17 4 -6 3 -8 -2
-5 -6 3 -16 2 -24 -4 -13 -7 -12 -9 3 -9 9 0 17 -7 17 -16 0 -8 -4 -12 -10 -9
-6 3 -7 -1 -4 -10 8 -19 24 -7 28 19 1 9 5 16 9 16 4 0 10 0 13 0 4 0 1 -6 -5
-14 -6 -7 -8 -22 -4 -31 5 -14 3 -16 -7 -10 -9 5 -11 4 -6 -3 4 -7 17 -10 29
-7 24 6 56 -10 44 -21 -3 -4 -13 -2 -21 5 -11 9 -15 9 -19 -1 -3 -10 -8 -11
-26 0 -29 17 -40 15 -17 -3 16 -12 17 -18 8 -27 -9 -9 -17 -10 -31 -1 -14 9
-18 8 -18 -3 0 -7 4 -11 9 -8 4 3 8 -6 8 -20 0 -14 5 -26 10 -26 6 0 10 -4 10
-10 0 -19 -19 -10 -26 12 l-7 22 -18 -23 c-24 -29 -24 -60 -1 -68 32 -13 45
-32 32 -48 -9 -11 -9 -15 -1 -15 6 0 11 5 11 11 0 5 5 7 10 4 16 -10 12 11 -5
25 -8 7 -12 16 -9 21 3 5 12 2 21 -6 9 -9 23 -13 34 -10 15 5 18 2 13 -12 -4
-11 -3 -14 3 -7 10 14 63 24 63 13 0 -5 4 -9 10 -9 5 0 7 7 4 15 -7 17 31 22
41 5 4 -6 15 -2 27 10 30 28 44 25 24 -5 -9 -14 -12 -25 -7 -25 5 0 12 7 15
16 3 8 10 12 16 9 17 -11 11 -31 -10 -33 -44 -4 -48 -6 -42 -21 3 -9 12 -25
20 -36 13 -19 14 -19 8 7 -4 17 -2 28 4 28 5 0 10 -8 10 -17 0 -9 3 -13 7 -10
3 4 12 2 20 -5 22 -18 24 -3 3 20 -24 26 -10 30 15 5 16 -16 18 -16 27 0 11
21 29 23 22 2 -4 -9 0 -15 8 -15 7 0 22 -14 32 -31 10 -17 24 -28 31 -25 7 2
18 -1 25 -7 9 -9 11 -9 7 -1 -4 7 -1 14 6 17 8 3 14 -3 14 -15 2 -24 -22 -34
-42 -18 -23 19 -18 0 6 -21 18 -16 19 -18 3 -27 -14 -8 -14 -10 5 -15 18 -4
21 -1 21 24 0 16 5 29 10 29 6 0 10 6 10 14 0 17 50 13 61 -5 12 -19 4 -22
-20 -8 -26 17 -34 8 -22 -22 l10 -24 0 23 1 23 29 -22 c16 -12 34 -18 40 -15
6 4 11 2 11 -5 0 -8 4 -8 15 1 8 7 12 16 9 21 -3 5 2 9 11 9 14 0 14 -3 0 -29
-17 -34 -8 -45 30 -35 25 6 35 -8 15 -21 -15 -9 -12 -22 6 -22 12 0 15 8 12
28 -3 17 1 30 8 33 16 6 28 -10 19 -24 -12 -19 -14 -50 -3 -50 5 0 8 7 4 15
-3 9 0 15 10 15 16 0 26 -19 28 -53 1 -29 30 -28 34 1 2 12 6 22 8 22 11 0 50
-24 59 -37 6 -8 18 -11 28 -7 12 4 14 10 8 18 -14 16 -1 31 32 34 18 2 27 -2
27 -12 0 -7 11 -17 25 -20 14 -4 24 -10 24 -14 -4 -21 3 -22 21 -1 17 21 21
22 30 9 7 -11 5 -19 -10 -31 -19 -17 -19 -17 5 -21 16 -4 22 -1 18 6 -4 6 1 5
10 -3 9 -7 23 -11 31 -8 8 3 17 -1 20 -10 6 -14 8 -14 25 1 18 17 39 7 27 -12
-8 -13 9 -31 22 -24 6 5 13 17 15 27 1 11 6 25 10 32 4 6 3 13 -3 15 -6 2 -6
8 0 18 9 13 11 13 20 0 8 -12 10 -12 10 5 0 11 5 27 11 35 9 13 10 12 5 -2 -3
-10 1 -24 9 -32 25 -24 18 -45 -12 -43 -19 1 -27 -2 -25 -12 1 -7 -5 -25 -14
-39 -15 -22 -15 -24 -1 -19 10 4 22 -2 32 -16 13 -18 17 -20 25 -7 5 8 5 17 0
20 -5 3 -11 17 -15 31 -6 26 -6 27 39 24 47 -3 80 -20 70 -36 -3 -5 1 -9 8
-10 7 0 4 -4 -7 -8 -15 -6 -22 -3 -27 10 -4 11 -13 19 -19 19 -8 0 -8 -4 1
-15 10 -12 10 -15 0 -15 -34 0 6 -14 48 -17 33 -2 43 0 32 7 -12 8 -13 12 -2
19 11 6 9 9 -6 13 -16 5 -20 13 -18 42 1 20 -2 36 -6 36 -5 0 -8 -7 -8 -15 0
-8 -4 -15 -10 -15 -12 0 -13 11 0 30 8 12 13 13 29 3 16 -10 22 -9 37 8 16 18
16 25 2 121 -10 66 -12 113 -7 133 17 59 8 279 -21 490 -6 44 -13 98 -16 120
-2 22 -11 83 -18 135 -7 52 -11 115 -8 139 4 44 -7 115 -35 203 -10 35 -13 69
-8 127 6 67 4 89 -15 147 -34 104 -65 158 -111 198 -49 42 -97 60 -145 54
l-34 -4 0 44 c0 30 3 41 12 36 7 -5 8 -3 4 5 -5 7 -14 10 -22 7 -8 -3 -14 -1
-14 5 0 15 31 23 39 10 5 -8 16 4 32 33 13 25 20 48 16 53 -5 4 -11 3 -15 -2
-11 -15 -70 -13 -65 3 5 12 17 16 41 13 20 -3 13 15 -10 26 -14 6 -31 7 -43 2
l-20 -9 20 1 c36 2 39 -1 19 -16 -24 -18 -38 -19 -28 -2 6 10 4 10 -7 0 -21
-21 -56 -16 -62 8 -4 17 -3 19 6 10 14 -14 37 -15 37 -1 0 5 -7 7 -15 4 -9 -4
-16 2 -20 18 -11 44 3 77 63 145 21 25 23 25 36 8 11 -15 13 -16 13 -1 0 9 -4
16 -9 16 -5 0 -4 10 3 21 8 17 8 23 -1 29 -7 4 -10 12 -6 18 3 6 1 14 -5 18
-8 5 -9 3 -4 -7 6 -10 5 -11 -4 -3 -13 12 -4 47 10 38 5 -3 9 -1 9 5 0 5 -5
13 -10 16 -13 8 -42 -14 -34 -26 3 -5 1 -9 -5 -9 -15 0 -26 23 -13 28 7 2 12
8 12 14 0 7 -5 7 -13 -1 -17 -13 -26 -3 -121 127 -38 51 -81 99 -96 107 -35
18 -48 76 -30 131 7 21 10 60 7 91 -5 44 -3 55 10 60 10 4 23 -2 35 -16 10
-13 34 -36 53 -51 l36 -29 164 3 164 2 26 -72 c20 -54 25 -81 19 -109 -7 -38
-7 -38 25 -33 17 2 31 0 31 -4 0 -5 7 -2 16 6 8 9 19 14 24 11 5 -3 12 0 16 6
4 7 3 9 -3 6 -12 -8 -26 20 -17 34 3 5 1 9 -4 9 -5 0 -12 12 -15 28 -3 15 -9
35 -12 45 -4 9 -3 17 2 17 12 0 167 -101 171 -111 2 -5 10 -9 18 -9 8 0 14 -4
14 -10 0 -5 8 -10 17 -10 14 0 13 -3 -5 -16 -23 -16 -47 -11 -36 8 4 6 10 5
16 -3 8 -11 9 -11 5 1 -2 8 -13 16 -24 18 -11 2 -25 13 -30 24 -6 15 -12 18
-17 10 -4 -7 -2 -12 4 -12 6 0 8 -4 5 -10 -3 -6 -2 -10 3 -10 5 0 17 -12 27
-26 l17 -26 -36 5 c-20 3 -43 -1 -52 -7 -13 -10 -8 -12 30 -10 26 1 44 -2 40
-7 -3 -5 2 -12 11 -15 14 -6 14 -9 3 -16 -10 -8 -11 -11 0 -15 10 -4 10 -8 1
-19 -8 -10 -8 -14 0 -14 6 0 11 -4 11 -8 0 -5 -6 -9 -14 -9 -9 0 -13 8 -10 23
3 19 1 21 -18 16 -12 -3 -17 -7 -10 -10 17 -5 15 -22 -3 -22 -8 0 -15 8 -15
18 -1 16 -2 15 -15 -2 -11 -15 -17 -17 -29 -7 -11 9 -15 9 -18 0 -3 -8 -10 -9
-23 -2 -20 11 -45 7 -45 -6 0 -4 20 -6 45 -6 25 1 45 -2 45 -7 0 -4 -4 -8 -10
-8 -5 0 -10 -4 -10 -10 0 -5 6 -9 13 -7 6 1 11 -4 10 -10 -2 -7 2 -13 7 -13 6
0 10 11 10 25 0 18 5 25 19 25 31 0 51 -11 51 -27 0 -13 3 -13 16 -3 8 7 14
23 13 34 -2 38 1 41 17 17 12 -17 13 -26 5 -34 -18 -18 -13 -28 8 -15 22 13
35 58 17 58 -6 0 -17 9 -24 20 -7 11 -10 20 -8 20 11 0 55 -28 51 -32 -11 -11
42 -36 56 -27 20 12 31 11 27 -3 -6 -17 -40 -19 -65 -2 -22 14 -23 13 -23 -11
0 -16 -6 -25 -15 -25 -20 0 -19 -6 3 -28 17 -17 20 -17 30 -3 6 9 11 11 11 5
1 -6 -6 -17 -14 -24 -12 -10 -16 -9 -21 3 -3 9 -12 13 -21 10 -9 -4 -14 -2
-11 3 4 5 -6 9 -22 9 -20 1 -26 -3 -22 -13 4 -11 0 -13 -16 -7 -14 4 -22 2
-22 -5 0 -8 10 -10 25 -8 14 3 25 1 25 -3 0 -5 -6 -9 -14 -9 -8 0 -14 -8 -13
-19 1 -13 7 -17 20 -13 12 3 15 7 7 12 -8 5 -5 9 8 12 23 6 24 -23 1 -30 -8
-3 -18 -12 -23 -20 -7 -12 -11 -11 -22 9 -7 13 -13 20 -14 14 0 -5 -14 -11
-32 -12 -17 -1 -35 -6 -39 -10 -10 -10 0 -53 13 -53 5 0 4 8 -2 19 -13 25 -13
31 0 31 6 0 10 -6 10 -14 0 -9 7 -12 20 -9 16 4 18 9 9 19 -8 10 -6 13 9 11
16 -1 18 -5 12 -22 -4 -11 -13 -19 -19 -18 -6 2 -11 -1 -11 -6 0 -6 9 -9 19
-8 11 0 17 5 14 11 -4 5 1 7 10 3 23 -9 47 2 41 18 -3 7 -1 16 5 20 7 3 11 -3
11 -15 0 -15 5 -20 14 -17 8 3 20 -1 26 -8 21 -25 73 -6 64 23 -5 14 -4 14 4
3 6 -8 8 -20 5 -28 -3 -7 0 -13 6 -13 6 0 11 4 11 8 0 5 7 9 15 9 21 0 19 -10
-10 -41 -28 -30 -32 -41 -12 -33 8 3 20 1 28 -5 11 -8 10 -9 -4 -4 -11 3 -20
0 -23 -9 -4 -8 -10 -12 -15 -9 -5 3 -7 10 -4 15 4 5 2 9 -4 9 -5 0 -13 -4 -16
-10 -3 -5 -1 -10 5 -10 6 0 8 -5 4 -11 -3 -6 0 -15 7 -20 11 -6 11 -11 2 -20
-10 -10 -9 -15 5 -25 14 -11 15 -15 3 -23 -7 -5 -11 -14 -7 -20 4 -7 1 -9 -8
-5 -8 3 -12 13 -9 22 4 15 3 15 -6 2 -8 -11 -7 -18 5 -27 15 -11 51 -7 40 5
-3 3 -1 11 4 18 8 8 6 16 -5 27 -9 10 -11 18 -5 22 5 3 10 2 10 -4 0 -6 7 -8
15 -5 8 4 15 1 15 -6 0 -6 -4 -8 -10 -5 -5 3 -10 1 -10 -4 0 -6 5 -11 10 -11
6 0 10 -7 10 -16 0 -8 -4 -13 -9 -10 -8 6 -23 -16 -26 -39 -1 -5 -5 -18 -9
-27 -4 -9 -5 -21 -2 -27 3 -5 0 -11 -6 -14 -10 -3 -10 -8 1 -18 9 -9 11 -9 7
-1 -9 15 6 16 21 1 5 -5 25 -11 42 -11 39 -1 49 -14 16 -20 -14 -3 -25 -2 -25
1 0 4 -12 8 -26 9 -21 2 -24 -1 -15 -11 6 -8 8 -17 4 -20 -3 -4 -1 -7 6 -7 8
0 11 7 7 15 -5 13 -2 14 16 4 16 -9 18 -13 7 -20 -21 -13 -49 -11 -49 5 0 9
-7 12 -20 9 -25 -7 -27 -21 -2 -19 9 0 16 -5 14 -12 -2 -13 43 -7 64 9 6 5 13
6 16 4 6 -7 58 15 58 25 0 3 -5 11 -11 17 -7 7 -3 9 15 6 24 -5 31 3 27 29 0
5 3 7 9 5 5 -1 21 12 35 28 15 17 23 24 19 16 -5 -11 -1 -13 19 -9 18 4 24 1
20 -9 -3 -9 3 -13 21 -13 l27 0 -21 -22 c-18 -19 -19 -24 -6 -26 9 -2 17 -9
17 -15 1 -7 3 -22 4 -35 1 -12 -2 -22 -6 -22 -5 0 -9 5 -9 10 0 6 -5 10 -11
10 -5 0 -8 -4 -4 -9 3 -6 -2 -14 -11 -19 -13 -7 -7 -10 24 -10 33 -1 42 3 42
16 1 15 3 14 16 -3 8 -11 13 -32 10 -48 -6 -36 -13 -44 -28 -29 -9 9 -9 12 0
12 17 0 15 27 -2 33 -10 4 -13 1 -9 -9 3 -8 0 -21 -6 -28 -10 -11 -8 -17 6
-25 17 -10 17 -10 -2 -11 -15 0 -17 -2 -6 -9 20 -13 80 -5 100 13 10 9 21 13
25 9 4 -4 9 3 13 15 3 12 9 19 15 16 5 -3 6 -14 3 -24 -4 -12 1 -19 16 -23 13
-4 18 -10 13 -18 -4 -8 -3 -10 4 -5 7 4 12 2 12 -4 0 -6 -8 -10 -17 -8 -10 1
-24 -1 -30 -5 -8 -5 -13 -4 -13 2 0 6 -5 11 -11 11 -8 0 -8 -4 0 -14 18 -21
-30 -48 -79 -43 -22 2 -37 1 -35 -3 3 -4 16 -8 31 -8 14 0 30 -6 35 -13 6 -10
9 -11 9 -1 0 18 17 15 40 -8 11 -11 22 -20 25 -20 3 0 10 0 15 0 6 0 10 -10
10 -22 0 -15 3 -19 8 -11 5 8 13 9 22 3 13 -8 13 -10 -1 -10 -9 0 -19 -7 -23
-15 -3 -8 -12 -15 -20 -15 -8 0 -17 -4 -20 -9 -3 -4 6 -6 19 -3 19 3 25 0 25
-13 0 -11 -5 -15 -15 -11 -8 3 -21 -4 -30 -16 -18 -26 -6 -38 40 -38 28 0 29
-1 11 -17 -13 -13 -20 -15 -23 -5 -3 6 -9 12 -14 12 -5 0 -3 -11 3 -25 12 -27
28 -33 28 -11 0 11 10 14 42 11 29 -3 38 -1 28 5 -13 8 -12 10 3 10 10 0 17
-7 17 -18 0 -23 -33 -55 -45 -45 -5 5 -3 0 4 -10 10 -12 16 -14 21 -6 6 8 13
8 28 0 28 -15 39 -14 39 4 0 8 -5 15 -11 14 -23 -3 -36 1 -36 11 0 6 7 10 15
10 12 0 13 4 5 19 -14 28 -13 31 13 32 16 1 18 2 5 6 -10 2 -18 8 -18 13 0 4
-19 12 -41 18 -31 8 -39 8 -30 -1 6 -6 11 -18 11 -27 0 -13 -1 -13 -10 0 -5 8
-10 12 -10 7 0 -4 -14 0 -31 9 -17 8 -28 11 -25 5 4 -6 2 -11 -3 -11 -12 0
-15 23 -4 33 3 4 17 0 30 -8 13 -9 23 -12 22 -8 -4 23 3 31 22 28 12 -3 24 -7
27 -10 3 -2 11 0 19 6 13 11 14 10 17 -13 0 -7 10 -17 22 -22 11 -5 28 -22 37
-38 11 -20 24 -28 43 -28 27 0 27 0 8 -22 -16 -20 -17 -21 -1 -9 13 11 21 11
29 3 8 -8 4 -14 -15 -21 -29 -11 -30 -37 -3 -56 13 -10 14 -14 4 -18 -7 -3 -4
-5 7 -4 11 1 21 -2 23 -8 4 -11 37 -27 65 -30 29 -3 42 -22 28 -39 -10 -12 -9
-14 8 -9 24 6 37 33 15 33 -9 0 -14 6 -11 13 2 6 18 12 35 12 19 0 32 5 32 12
0 7 6 13 13 14 6 1 1 4 -12 8 -14 4 -26 12 -29 19 -2 8 2 10 14 5 13 -5 15 -3
9 7 -5 8 -4 11 2 7 6 -4 16 -1 22 7 8 10 6 18 -8 35 -14 16 -21 19 -27 10 -4
-7 -2 -15 4 -17 21 -7 13 -19 -10 -16 -13 1 -32 3 -43 3 -11 1 -31 10 -44 20
l-24 18 57 -1 c40 -1 61 3 69 13 10 12 9 14 -5 8 -19 -7 -25 7 -9 18 5 3 16
-4 25 -16 l15 -21 35 22 c20 12 36 26 36 31 0 15 -17 10 -24 -6 -6 -16 -51
-12 -70 6 -5 5 5 4 23 -1 29 -8 36 -6 58 18 13 15 22 22 19 15 -8 -15 10 -27
19 -13 4 6 1 19 -6 28 -11 14 -11 15 1 4 18 -15 54 -16 44 0 -4 7 -3 8 5 4 14
-9 9 -30 -7 -32 -7 -1 -17 -2 -24 -3 -9 -1 -9 -4 -1 -12 8 -8 17 -8 34 1 23
11 24 11 4 -6 -18 -15 -18 -16 -2 -10 10 3 23 6 28 6 14 0 1 39 -23 69 -19 25
-16 43 4 23 7 -7 20 -12 31 -12 10 0 16 -4 12 -10 -3 -5 -13 -6 -22 -3 -11 4
-14 2 -9 -5 4 -6 21 -15 37 -19 29 -8 42 -31 14 -25 -20 4 -28 -15 -9 -22 19
-7 44 10 44 30 0 16 16 19 24 5 4 -5 0 -12 -6 -14 -9 -4 -8 -6 2 -6 8 0 21 3
29 8 12 8 12 12 2 25 -10 11 -10 16 -2 16 18 0 -20 46 -49 61 -14 7 -28 12
-32 11 -4 -1 -4 6 -1 15 5 12 3 14 -7 8 -10 -6 -12 -4 -7 8 3 10 2 17 -3 17
-6 0 -10 5 -10 11 0 5 6 7 13 3 7 -4 9 -3 4 2 -5 5 -12 10 -15 10 -24 5 -52
17 -52 23 0 4 5 12 11 18 9 9 5 14 -14 18 -15 4 -29 16 -32 26 -4 10 -11 19
-17 19 -5 0 0 -17 12 -38 l22 -37 -24 23 c-14 12 -27 20 -30 16 -3 -3 -6 1 -5
8 1 36 -4 58 -19 72 -14 15 -14 18 1 33 16 15 19 15 54 -2 20 -11 41 -21 46
-23 6 -3 -15 21 -45 52 -30 31 -65 59 -78 63 -28 7 -51 -12 -35 -28 12 -12 6
-49 -8 -49 -5 0 -9 4 -9 10 0 5 -6 7 -14 4 -8 -3 -23 3 -34 14 -10 10 -26 18
-35 16 -8 -1 -18 5 -21 13 -3 8 -10 11 -16 8 -5 -3 -10 1 -10 10 0 9 -4 13
-10 10 -5 -3 -15 5 -22 19 -10 24 -21 31 -42 27 -5 -1 -6 5 -2 14 3 9 2 14 -3
11 -5 -3 -19 3 -31 14 -13 11 -18 20 -12 20 7 0 3 9 -8 20 -11 11 -25 20 -32
20 -17 0 -120 109 -113 120 3 6 -1 10 -11 10 -14 0 -16 7 -10 38 3 20 6 43 6
51 0 8 6 11 15 7 23 -8 18 8 -10 34 l-24 23 -35 -31 c-19 -16 -34 -32 -33 -34
1 -2 -4 3 -10 11 -7 8 -13 19 -13 24 0 4 -5 5 -11 2 -6 -4 -5 2 2 13 11 18 10
24 -5 41 -25 28 -44 26 -56 -4 -5 -14 -12 -25 -14 -25 -3 0 -3 7 0 15 4 9 0
15 -10 15 -9 0 -16 7 -16 15 0 8 -8 15 -18 15 -10 0 -27 7 -38 16 -10 8 -13
12 -6 9 11 -6 11 -3 0 14 -7 12 -19 21 -27 21 -11 0 -12 10 -8 45 4 24 3 46
-1 49 -16 10 -33 -12 -34 -43 -1 -20 -4 -27 -9 -20 -4 7 -5 17 -2 23 4 5 -1 7
-10 3 -11 -4 -14 -2 -10 9 3 7 0 14 -7 14 -6 0 -8 5 -4 12 5 7 10 32 12 55 3
34 0 43 -12 43 -9 0 -16 5 -16 11 0 7 -11 9 -28 6 -24 -5 -30 -2 -39 24 -14
36 -37 46 -58 25 -21 -21 -27 -20 -56 5 -18 16 -20 22 -10 28 11 7 9 10 -7 15
-14 5 -19 12 -15 23 5 12 2 15 -10 10 -10 -4 -21 3 -31 18 -15 22 -14 25 6 40
l22 15 -21 0 c-12 0 -25 4 -28 10 -3 6 1 7 10 4 10 -4 24 2 35 14 19 20 19 21
-48 64 -37 23 -88 53 -114 66 -34 16 -48 29 -48 43 0 15 5 19 16 15 8 -3 12
-2 9 4 -3 6 -1 10 4 10 6 0 11 -4 11 -10 0 -5 7 -10 15 -10 22 0 77 -29 71
-38 -2 -4 9 -7 26 -7 20 0 37 9 52 26 23 27 66 44 66 27 0 -5 -9 -12 -20 -15
-11 -3 -20 -10 -20 -15 0 -5 -4 -7 -9 -4 -5 3 -14 -1 -21 -9 -10 -12 -9 -15 4
-15 9 0 29 -8 44 -17 27 -17 27 -17 10 3 -22 25 -22 30 -2 38 10 4 13 2 8 -6
-5 -8 -2 -9 9 -5 9 3 19 2 22 -3 3 -5 17 -7 31 -4 23 4 25 2 19 -18 -4 -13
-11 -28 -16 -34 -17 -21 12 -34 38 -17 13 9 26 13 30 9 3 -3 1 -6 -6 -6 -7 0
-10 -4 -6 -9 3 -6 -2 -14 -11 -19 -11 -6 -13 -11 -5 -16 6 -4 11 -3 11 2 0 6
7 12 15 16 12 4 12 1 -2 -22 -16 -25 -16 -26 -1 -14 10 8 23 10 29 6 9 -5 7
-10 -7 -15 -19 -7 -18 -8 1 -9 11 -2 24 -2 28 -1 5 1 6 -3 2 -9 -3 -5 0 -10 7
-10 9 0 9 -3 -2 -10 -9 -6 -18 -6 -24 0 -6 6 -14 10 -20 10 -5 0 -3 -6 6 -12
8 -7 18 -20 21 -29 4 -13 1 -15 -13 -12 -12 3 -17 11 -13 21 5 14 4 15 -8 3
-12 -11 -11 -15 4 -25 10 -6 32 -23 49 -38 17 -15 44 -33 60 -40 15 -7 28 -18
28 -23 0 -9 131 -114 155 -124 5 -2 16 -12 25 -22 33 -38 298 -257 304 -252 3
4 6 2 6 -4 0 -18 210 -195 234 -197 15 -1 21 -6 19 -16 -5 -20 83 -94 100 -84
6 4 9 4 5 -1 -10 -11 99 -115 282 -270 l151 -127 33 26 c19 14 51 41 71 61 21
19 42 35 46 35 14 0 11 18 -3 23 -7 3 -1 6 15 6 16 1 27 7 27 15 0 9 12 16 28
18 15 2 26 8 25 14 -1 7 6 10 17 7 11 -3 20 -1 20 4 0 5 17 15 38 22 37 13 92
53 92 68 0 5 9 14 19 20 11 7 34 49 51 95 28 70 33 97 33 173 1 50 -2 107 -6
128 l-8 37 48 0 c28 0 58 -7 71 -16 12 -8 27 -12 32 -9 6 3 10 -1 10 -9 0 -8
5 -18 12 -22 7 -5 9 -2 4 7 -5 8 5 -1 22 -18 16 -18 32 -30 35 -26 4 3 13 1
21 -6 14 -12 10 -30 -26 -110 -10 -23 -13 -44 -8 -67 5 -20 4 -34 -1 -34 -6 0
-5 -9 1 -21 7 -12 20 -20 33 -19 39 4 43 1 42 -27 -1 -16 4 -38 12 -50 10 -18
11 -21 0 -17 -8 3 -18 -10 -26 -33 -8 -21 -16 -44 -18 -50 -3 -7 6 -18 18 -23
23 -10 23 -10 -3 -5 -27 5 -28 4 -30 -37 -3 -62 -5 -81 -11 -98 -22 -64 -47
-149 -47 -163 0 -10 6 -14 13 -11 8 3 20 -2 27 -11 11 -13 10 -15 -6 -9 -16 5
-16 4 -4 -5 9 -6 31 -9 53 -5 24 4 37 2 37 -5 0 -6 4 -11 9 -11 5 0 7 10 4 21
-5 18 -3 20 15 15 11 -4 23 -2 27 4 3 5 19 10 35 10 22 0 28 4 24 15 -6 14 19
21 50 16 5 -1 6 5 3 14 -4 8 -1 15 6 15 7 1 -1 8 -16 16 -17 9 -37 12 -50 8
-19 -6 -20 -5 -8 10 12 14 11 16 -5 17 -11 1 -23 1 -28 0 -5 -1 -6 5 -3 13 3
8 1 17 -6 20 -7 2 -4 5 6 5 9 1 17 6 17 11 0 6 8 5 20 -2 11 -7 20 -16 20 -21
0 -4 -9 -3 -20 3 -14 8 -20 8 -20 0 0 -18 32 -24 44 -8 11 15 17 18 39 18 9 0
9 2 -1 9 -11 7 -11 9 0 13 18 7 40 -16 27 -29 -6 -6 1 -10 20 -10 25 0 27 2
15 14 -8 8 -12 19 -9 24 4 5 -1 6 -9 3 -9 -3 -16 -1 -16 5 0 6 7 11 16 11 14
0 14 2 -1 16 -9 9 -13 19 -10 22 3 4 10 0 16 -8 8 -13 10 -13 19 0 7 11 4 17
-10 22 -25 9 -26 18 -2 12 9 -3 27 4 38 15 12 11 25 16 30 11 5 -4 19 -11 32
-15 17 -5 22 -2 22 13 0 29 10 33 42 16 17 -9 27 -18 24 -21 -3 -3 -12 0 -21
7 -8 7 -15 8 -15 2 0 -18 33 -23 50 -7 10 9 27 17 39 18 21 1 35 22 26 37 -3
4 3 14 13 21 15 12 16 12 5 -2 -8 -10 -9 -19 -2 -26 6 -6 3 -18 -11 -36 -24
-31 -17 -36 13 -10 11 10 17 13 14 6 -4 -6 0 -13 10 -16 17 -4 17 -5 0 -6 -10
0 -15 -6 -12 -11 4 -6 3 -10 -2 -9 -29 5 -33 -3 -11 -21 19 -14 34 -18 60 -14
24 4 39 1 50 -9 15 -15 28 -13 28 4 0 8 -40 22 -57 20 -7 -1 -13 2 -13 6 0 5
11 10 25 11 14 1 25 -3 25 -8 0 -6 11 -8 24 -4 13 3 27 1 30 -5 5 -7 1 -8 -10
-4 -13 5 -15 2 -9 -18 10 -34 24 -57 25 -41 0 6 4 12 10 12 5 0 7 -7 4 -15 -4
-8 -1 -15 6 -15 8 0 9 10 5 31 -7 30 -6 32 16 26 13 -4 30 -7 37 -7 7 0 11 -4
8 -8 -2 -4 -1 -14 5 -22 7 -13 9 -12 9 3 0 11 8 17 23 16 17 0 18 -2 6 -7 -14
-6 -15 -9 -3 -20 8 -7 14 -9 14 -5 0 4 5 0 11 -9 5 -10 19 -18 29 -18 21 0 27
-24 10 -35 -18 -11 2 -35 26 -31 19 4 24 0 24 -15 0 -10 7 -19 15 -19 8 0 15
-4 15 -10 0 -5 6 -7 14 -4 8 3 17 1 21 -5 10 -17 36 -13 52 7 8 9 12 11 8 4
-3 -6 -1 -12 5 -12 6 0 8 -5 4 -12 -5 -7 0 -9 14 -6 15 4 19 2 15 -8 -3 -10 3
-14 20 -14 15 0 31 -9 41 -25 9 -14 21 -25 27 -25 8 0 7 5 -1 15 -10 12 -9 15
7 15 23 0 76 57 104 112 11 21 24 38 30 38 6 0 9 6 6 13 -2 7 4 23 14 36 22
26 23 24 9 -14 -7 -17 -7 -24 0 -20 6 3 10 1 10 -5 0 -6 10 -2 22 10 15 14 24
17 29 9 4 -7 14 -9 22 -6 13 5 14 2 8 -16 -5 -12 -13 -23 -20 -23 -6 -1 -15
-2 -21 -3 -5 0 -10 -6 -10 -11 0 -6 11 -8 25 -4 19 5 25 2 25 -10 0 -10 -5
-13 -17 -9 -10 4 -14 2 -9 -5 3 -6 2 -13 -3 -16 -5 -4 -12 3 -16 14 -9 27 -18
25 -32 -6 -12 -25 -11 -26 6 -10 17 16 19 15 31 -15 11 -26 11 -32 -1 -39 -7
-5 -10 -12 -6 -17 11 -10 27 16 27 44 0 12 5 25 11 28 11 8 40 -25 33 -37 -9
-14 14 -8 30 8 16 15 13 34 -4 34 -5 0 -7 -7 -4 -15 5 -11 2 -13 -10 -9 -9 3
-14 9 -11 14 2 4 0 22 -5 40 -10 34 8 78 25 62 5 -4 5 -1 0 7 -6 11 -3 13 13
9 16 -5 22 -2 23 10 0 11 4 8 10 -8 8 -19 6 -27 -6 -36 -11 -8 -13 -14 -5 -19
6 -4 17 1 25 11 11 16 16 17 27 6 11 -11 10 -12 -3 -7 -24 9 -33 -37 -15 -79
8 -19 12 -37 8 -40 -3 -3 0 -6 6 -6 7 0 12 9 12 19 0 11 3 26 6 35 4 12 0 16
-15 16 -23 0 -26 7 -11 30 8 12 10 12 16 -4 6 -17 8 -16 20 5 7 13 13 18 14
12 0 -7 9 -13 20 -13 22 0 27 -15 8 -26 -6 -4 -17 2 -25 12 -13 17 -14 16 -9
-15 2 -19 12 -41 20 -49 14 -14 16 -13 25 9 8 22 50 77 52 68 0 -2 3 -24 6
-48 3 -28 2 -41 -5 -37 -6 3 -8 15 -5 26 4 13 0 20 -10 20 -12 0 -13 -7 -6
-37 4 -21 7 -38 6 -39 -16 -12 -46 -12 -51 1 -3 8 -11 15 -18 15 -9 0 -9 -3 0
-12 7 -7 12 -21 13 -33 0 -11 3 -14 6 -7 2 6 11 12 19 12 12 0 12 -4 4 -20 -7
-14 -7 -20 0 -20 5 0 10 7 10 16 0 9 5 12 12 8 6 -4 8 -3 4 4 -3 6 3 13 14 17
11 3 20 13 20 21 0 11 6 13 19 9 11 -3 22 -1 26 5 9 15 25 12 25 -5 0 -8 -6
-12 -13 -9 -14 5 -43 -44 -32 -54 3 -4 8 4 12 17 4 17 8 19 14 9 5 -7 9 -22 9
-33 0 -15 7 -21 26 -23 l26 -2 -23 19 -23 18 23 13 c13 6 21 8 17 2 -3 -5 1
-13 10 -16 10 -4 14 -14 11 -26 -7 -29 11 -25 25 5 11 25 28 34 28 15 0 -5 -5
-10 -10 -10 -6 0 -9 -13 -8 -30 2 -30 12 -38 22 -21 4 5 1 11 -6 13 -24 8 4
28 33 23 16 -3 29 -1 29 5 0 14 32 7 63 -13 14 -9 32 -15 39 -14 7 2 9 2 4 -1
-4 -2 5 -15 20 -29 16 -13 24 -22 18 -19 -7 3 -19 -5 -28 -19 -9 -14 -24 -25
-34 -25 -14 0 -15 -2 -3 -9 10 -6 18 -5 25 4 6 8 23 16 38 19 15 2 32 7 38 11
5 3 10 1 10 -4 0 -6 7 -11 15 -11 8 0 15 -5 15 -11 0 -5 -4 -7 -10 -4 -6 3 -7
-1 -4 -10 5 -12 10 -13 20 -5 15 13 54 -3 54 -22 0 -9 3 -9 12 0 15 15 38 16
38 2 0 -5 -7 -10 -16 -10 -14 0 -14 -2 0 -15 8 -8 23 -15 34 -15 18 0 34 -20
36 -45 1 -5 10 -9 22 -7 11 1 29 -7 39 -18 22 -25 43 -27 24 -2 -11 14 -11 15
1 4 8 -6 23 -12 35 -13 20 0 20 0 0 -8 -19 -8 -19 -8 3 -15 12 -4 19 -12 16
-17 -4 -7 5 -9 22 -7 29 3 47 28 20 28 -9 0 -16 4 -16 10 0 5 14 9 30 7 17 -1
30 -6 29 -11 -2 -16 25 -25 41 -13 10 7 10 5 -2 -8 -14 -15 -20 -16 -32 -5
-13 10 -19 10 -31 0 -23 -19 -18 -31 10 -24 25 6 36 -10 13 -19 -8 -3 -6 -8 7
-13 11 -4 23 -11 26 -16 3 -5 24 -10 46 -11 39 -2 39 -2 40 35 0 26 -4 38 -16
41 -13 4 -13 5 2 6 29 2 20 83 -10 96 -13 5 -23 13 -23 16 0 4 -25 17 -56 29
-38 16 -51 25 -42 31 9 6 6 9 -9 9 -13 0 -23 4 -23 10 0 5 -7 6 -17 3 -11 -4
-14 -3 -9 5 5 8 0 12 -13 12 -12 0 -21 7 -21 15 0 9 -7 18 -15 21 -8 4 -12 10
-9 15 3 6 -13 7 -38 4 -24 -3 -37 -1 -30 3 14 9 6 42 -10 42 -5 0 -82 48 -171
108 -89 59 -173 112 -187 118 -15 6 -39 23 -55 38 -15 14 -30 24 -32 22 -2 -2
-15 6 -29 19 -13 12 -47 34 -74 47 -27 14 -47 27 -45 30 3 3 -8 11 -25 18 -16
7 -30 16 -30 21 0 4 -25 23 -55 41 -30 18 -55 36 -55 40 0 5 -9 8 -19 8 -11 0
-23 5 -26 10 -4 6 -21 16 -38 24 -18 7 -45 25 -62 39 -16 15 -43 32 -60 39
-16 7 -39 20 -49 30 -11 10 -24 18 -29 18 -6 0 -25 11 -43 25 -18 14 -37 25
-42 25 -5 0 -15 7 -22 15 -7 8 -16 12 -21 10 -4 -3 -17 3 -29 15 -11 11 -22
20 -26 20 -3 0 -40 22 -82 49 -42 27 -105 62 -139 77 -35 14 -63 30 -63 35 0
4 -16 11 -35 15 -19 3 -32 10 -29 15 3 5 0 9 -7 9 -8 0 -8 4 1 15 27 33 68 18
270 -98 119 -68 250 -147 393 -236 54 -33 101 -61 104 -61 4 0 15 -7 25 -17
10 -9 18 -11 18 -5 0 6 -4 14 -10 17 -15 9 -12 25 4 19 8 -3 16 -18 19 -34 6
-25 30 -44 49 -37 4 1 14 -7 22 -18 9 -11 16 -16 16 -11 0 6 6 2 13 -9 14 -19
43 -12 31 7 -4 7 -2 8 5 4 7 -4 11 -15 9 -24 -4 -20 21 -42 77 -68 22 -10 46
-27 54 -37 10 -15 15 -16 22 -6 6 10 10 10 23 0 9 -7 14 -17 11 -21 -3 -4 6
-15 19 -24 18 -12 26 -12 29 -3 3 7 6 5 6 -5 1 -11 9 -18 21 -18 10 0 24 -8
29 -17 10 -16 11 -16 17 5 3 12 14 22 23 21 10 0 11 -2 4 -6 -7 -2 -13 -11
-13 -19 0 -9 4 -13 9 -10 5 4 7 -4 5 -16 -2 -13 -2 -17 2 -10 9 19 26 14 19
-7 -3 -11 0 -21 9 -24 9 -4 12 0 9 13 -3 10 0 21 6 24 7 4 12 -1 12 -13 1 -12
2 -27 3 -33 0 -7 10 -14 20 -16 11 -2 25 -9 31 -16 34 -33 80 -61 96 -58 13 2
17 -1 13 -11 -3 -10 2 -18 15 -22 12 -3 21 -11 21 -16 0 -5 6 -9 14 -9 8 0 16
-3 18 -7 5 -12 126 -93 138 -93 5 0 10 -4 10 -8 0 -4 14 -16 30 -25 29 -18 30
-18 30 2 0 11 -4 23 -10 26 -5 3 -10 10 -10 16 0 24 35 -16 37 -43 3 -35 30
-60 57 -51 14 4 18 1 13 -11 -4 -10 1 -20 13 -26 18 -10 20 -7 20 19 0 16 -6
32 -12 34 -10 4 -10 8 0 15 16 11 14 113 -2 124 -7 5 -7 8 2 8 6 0 12 6 12 14
0 8 -6 17 -12 19 -10 4 -10 6 -1 6 18 1 18 428 1 449 -10 12 -10 16 0 19 6 3
12 11 12 18 0 7 -6 16 -12 19 -10 5 -10 7 0 12 9 4 12 61 11 237 -1 128 -4
222 -6 210 -2 -13 -8 -23 -13 -23 -10 0 -1 38 11 46 5 3 9 34 9 70 0 41 -4 63
-10 59 -5 -3 -10 -1 -10 4 0 6 4 11 9 11 5 0 9 55 9 122 1 78 -3 117 -8 108
-7 -11 -10 -8 -10 13 0 16 4 26 10 22 13 -8 9 402 -4 429 -7 14 -6 17 2 12 16
-9 15 7 0 22 -9 9 -9 12 0 12 10 0 12 356 11 1625 0 985 -4 1623 -10 1619 -5
-3 -9 0 -9 5 0 6 5 11 10 11 16 0 13 627 -2 637 -7 4 -166 9 -352 11 -266 2
-341 0 -348 -10 -6 -10 -8 -10 -8 0 0 9 -31 12 -121 12 -68 0 -118 -4 -115 -9
3 -5 -1 -11 -9 -15 -9 -3 -15 0 -15 9 0 13 -29 15 -182 15 -117 0 -178 -4
-168 -10 8 -5 11 -12 7 -16 -4 -4 -15 0 -25 9 -15 14 -66 16 -435 16 -320 0
-417 -3 -417 -12 0 -9 -3 -8 -9 1 -6 10 -33 12 -99 11 -50 -2 -89 -6 -86 -11
3 -4 0 -8 -5 -8 -6 0 -11 5 -11 10 0 6 -22 10 -50 10 -27 0 -50 -4 -50 -10 0
-14 -27 -12 -33 3 -4 9 -8 8 -16 -3 -7 -10 -11 -11 -11 -2 0 9 -27 12 -101 12
-83 0 -100 -3 -96 -14 7 -18 -12 -26 -38 -15 -19 7 -19 8 0 8 14 1 16 4 7 13
-8 8 -15 8 -27 -2 -9 -8 -15 -8 -15 -2 0 14 -83 13 -92 -2 -4 -6 -8 -18 -8
-26 0 -13 1 -13 11 0 9 12 10 12 7 1 -7 -23 -25 -24 -31 -1 -3 11 -1 20 5 20
5 0 6 4 3 10 -8 13 -256 12 -272 -1 -8 -7 -18 -7 -30 -1 -27 15 -216 13 -226
-1 -7 -9 -10 -9 -14 1 -2 6 -11 12 -18 12 -7 0 -16 -6 -18 -12 -4 -10 -6 -10
-6 0 -1 6 -10 12 -21 12 -14 0 -18 -5 -14 -17 5 -16 4 -16 -5 -2 -13 20 -101
26 -112 7 -7 -10 -9 -10 -9 0 0 6 -9 12 -19 12 -11 0 -22 -6 -25 -12 -5 -10
-7 -10 -12 0 -7 15 -44 16 -44 1 0 -6 -7 -8 -16 -5 -14 5 -15 4 -4 -9 17 -21
8 -19 -35 6 -20 12 -39 19 -42 15 -3 -3 2 -8 11 -12 9 -3 16 -16 16 -28 0 -15
3 -17 9 -8 6 10 10 9 14 -7 3 -12 9 -21 14 -20 29 5 36 -2 17 -17 -19 -15 -19
-15 2 -11 17 4 20 1 17 -14 -6 -21 -23 -26 -23 -7 0 6 -3 9 -6 6 -8 -9 19 -48
33 -48 7 0 13 -5 13 -11 0 -5 -5 -7 -12 -3 -7 4 -8 3 -4 -4 4 -7 2 -12 -3 -12
-17 0 -13 -13 12 -41 12 -14 27 -24 33 -22 7 2 12 -8 12 -23 0 -25 -2 -26 -13
-11 -16 22 -23 21 -49 -5 -30 -31 -46 -33 -46 -6 0 13 -3 33 -6 46 -5 16 -3
22 7 20 8 -2 13 3 11 10 -1 6 3 12 9 12 8 0 7 6 -2 17 -12 15 -12 16 4 10 11
-4 17 -1 17 9 0 8 -5 12 -10 9 -6 -4 -9 -1 -8 7 2 7 -4 13 -12 13 -9 0 -14 -8
-12 -20 2 -14 0 -16 -6 -7 -5 7 -15 12 -22 10 -14 -3 -33 49 -25 71 3 8 0 19
-7 24 -9 6 -8 7 4 3 20 -6 34 10 16 18 -10 5 -10 7 0 12 25 11 -39 44 -87 44
-36 0 -41 -2 -32 -14 9 -11 7 -15 -9 -19 -14 -4 -20 0 -20 12 0 14 -10 18 -45
19 -33 2 -45 -2 -45 -12 0 -24 -29 -27 -52 -4 -17 17 -24 19 -39 9 -12 -7 -19
-7 -19 -1 0 5 -4 10 -10 10 -5 0 -10 -4 -10 -9z m1110 -632 c0 -5 -6 -7 -12
-3 -10 6 -10 4 -2 -7 5 -8 10 -27 9 -42 -1 -28 18 -53 45 -59 8 -2 17 -6 20
-10 11 -14 60 -20 60 -8 0 9 4 9 16 -1 14 -11 18 -11 29 4 12 17 13 17 19 0 6
-15 8 -15 16 -3 8 12 10 10 10 -7 0 -24 -14 -31 -25 -13 -10 16 -35 -8 -28
-26 3 -8 2 -14 -1 -14 -4 0 -11 12 -17 28 l-11 27 -11 -25 c-8 -21 -11 -22
-14 -7 -3 9 -13 17 -24 17 -10 0 -19 5 -19 10 0 6 -5 10 -11 10 -6 0 -24 9
-40 21 -37 26 -38 16 -1 -18 15 -14 19 -20 10 -13 -25 17 -23 -3 2 -25 18 -16
20 -16 20 -1 0 14 3 14 20 4 11 -7 16 -14 10 -16 -17 -6 -11 -22 8 -19 27 3
30 -14 5 -30 -21 -14 -23 -14 -33 11 -12 31 -17 32 -40 6 -15 -18 -19 -18 -24
-5 -3 9 -10 13 -16 10 -6 -4 -4 -16 6 -31 9 -13 14 -27 10 -31 -3 -3 -6 -1 -6
5 0 7 -4 12 -10 12 -5 0 -10 -7 -10 -15 0 -8 -4 -15 -8 -15 -10 0 -34 42 -31
56 4 25 -3 42 -21 47 -10 3 -21 2 -23 -2 -2 -3 -2 0 0 7 1 8 3 23 3 33 0 12 4
17 11 14 6 -4 8 -13 5 -21 -3 -7 -1 -16 4 -19 6 -4 10 2 10 12 0 12 6 6 16
-14 17 -33 28 -40 38 -24 3 4 17 6 32 3 24 -4 25 -3 15 16 -6 11 -19 20 -29
19 -23 -1 -79 36 -61 42 7 2 15 -1 17 -7 2 -7 16 -12 30 -12 15 0 23 4 17 8
-5 4 -22 31 -38 60 -22 42 -24 52 -11 52 8 0 12 -4 9 -10 -3 -5 1 -10 10 -10
11 0 15 5 12 14 -3 8 -1 17 6 20 20 8 27 7 27 -5z m400 -737 c0 -15 2 -15 10
-2 5 8 10 11 10 6 0 -5 8 -2 17 5 10 8 14 9 10 2 -4 -6 -3 -14 2 -17 5 -3 7
-14 5 -24 -3 -9 2 -26 11 -37 9 -11 14 -15 11 -8 -4 6 -2 14 4 18 6 4 10 -5
10 -21 0 -26 -1 -26 -25 -10 -32 21 -37 20 -30 -6 l6 -23 -17 23 c-19 25 -34
29 -34 7 0 -8 4 -15 10 -15 5 0 8 -6 6 -12 -1 -7 -1 -9 2 -5 2 4 10 3 18 -4 8
-6 11 -16 7 -23 -7 -11 -11 -87 -4 -81 8 8 41 -16 41 -30 0 -8 9 -15 20 -15
18 0 19 3 10 20 -6 11 -15 20 -20 20 -6 0 -10 6 -10 14 0 8 -7 22 -16 30 -14
15 -13 16 6 16 12 0 18 -4 15 -10 -3 -5 -3 -15 1 -22 5 -8 11 -5 20 7 8 10 17
15 21 12 3 -4 -1 -13 -11 -20 -17 -13 -17 -15 7 -43 14 -16 28 -26 31 -23 3 3
-4 16 -15 28 -18 19 -19 25 -8 32 18 11 29 -2 32 -37 1 -16 7 -33 13 -39 8 -6
9 -18 4 -30 -7 -15 -9 -16 -9 -4 -1 9 -8 22 -17 30 -13 11 -14 9 -8 -17 4 -16
12 -32 17 -35 5 -4 7 -15 2 -25 -7 -18 -8 -18 -15 1 -7 16 -9 17 -9 3 -1 -11
-8 -16 -21 -13 -11 2 -20 -2 -21 -8 0 -7 -5 -1 -10 12 -5 14 -8 30 -5 37 3 7
-4 16 -15 19 -13 5 -19 14 -17 28 2 16 -5 26 -29 37 -18 8 -33 19 -33 23 0 5
5 5 10 2 6 -3 10 -3 11 2 0 4 2 19 3 32 3 25 -11 70 -33 109 -7 13 -10 26 -7
30 3 3 6 -1 6 -9 0 -12 2 -12 9 0 6 10 13 11 29 2 14 -7 23 -8 27 -1 3 5 1 10
-5 10 -7 0 -10 7 -7 15 4 8 1 17 -5 21 -7 5 -8 2 -3 -7 5 -8 -4 -3 -18 10 -15
13 -24 28 -21 33 8 12 24 -1 24 -20z m681 -782 c5 0 9 -11 9 -25 0 -14 -4 -25
-10 -25 -5 0 -7 6 -4 14 3 8 1 17 -5 21 -7 3 -11 -2 -11 -14 0 -11 9 -25 21
-32 14 -7 19 -17 16 -30 -3 -10 -1 -22 4 -25 6 -3 5 -11 -2 -20 -8 -10 -8 -22
0 -45 6 -18 9 -34 7 -36 -2 -3 -7 6 -11 18 -11 34 -29 49 -46 38 -10 -6 -10
-9 -1 -9 6 0 12 -9 12 -19 0 -11 6 -26 14 -33 10 -10 11 -20 4 -31 -9 -18 -28
-14 -28 4 0 6 5 7 10 4 12 -7 12 -3 4 19 -8 21 -24 20 -25 -1 0 -14 -2 -15 -6
-3 -3 8 -12 23 -21 33 -8 9 -12 17 -7 17 4 0 14 -8 21 -17 13 -17 13 -17 13 2
-2 47 -13 60 -52 60 -29 0 -36 -3 -32 -15 2 -8 -3 -5 -11 8 -10 12 -27 22 -41
22 -13 0 -22 4 -19 8 6 10 42 9 52 -1 12 -12 64 -8 64 6 0 8 3 7 10 -3 5 -8
12 -11 15 -8 14 13 -7 28 -31 22 -13 -3 -24 -2 -24 4 0 15 32 24 44 12 16 -16
29 -12 22 6 -4 9 -2 22 4 29 19 22 -7 28 -29 6 -11 -11 -22 -17 -25 -13 -3 3
-6 -1 -6 -8 0 -7 -3 -10 -6 -7 -4 4 -1 14 6 22 9 11 10 19 3 26 -7 7 -13 2
-17 -16 -4 -14 -11 -23 -16 -20 -6 3 -10 1 -10 -6 0 -7 -9 -3 -20 9 -12 12
-25 22 -30 22 -6 0 -10 4 -10 9 0 13 40 7 49 -8 5 -7 14 -10 20 -7 14 9 14 27
0 24 -6 -2 -14 3 -16 10 -3 9 5 12 26 10 17 -1 33 -8 35 -15 8 -20 37 -16 34
5 -2 11 3 16 15 14 9 -2 18 3 18 10 1 7 3 5 6 -4 2 -10 9 -18 14 -18z m-1939
-131 c29 -11 54 -22 56 -24 5 -5 -99 -150 -115 -158 -10 -6 -18 -5 -24 4 -16
25 -62 139 -58 143 8 7 84 56 86 56 1 0 26 -9 55 -21z m-189 -225 c12 -20 -52
-123 -79 -129 -77 -16 -71 -19 -78 32 -14 107 -9 133 35 175 l41 39 37 -53
c20 -29 40 -58 44 -64z m-2390 -125 c37 -7 67 -16 67 -20 0 -5 7 -6 15 -3 8 4
27 3 42 -1 22 -5 24 -8 12 -16 -10 -8 -7 -9 13 -5 15 4 36 2 45 -3 10 -5 52
-25 93 -45 57 -27 76 -41 76 -56 0 -16 -5 -19 -21 -14 -11 4 -22 10 -25 14 -3
4 -43 26 -90 48 -95 46 -184 72 -245 72 -22 0 -57 5 -78 11 -33 9 -36 13 -26
25 8 9 21 13 33 10 12 -3 51 -11 89 -17z m97 -297 c18 -7 5 -9 -50 -6 l-75 3
60 -14 60 -14 -67 4 c-98 6 -249 -12 -346 -41 -9 -3 -4 2 11 11 16 9 27 18 25
21 -5 4 -149 -13 -183 -22 -20 -5 -20 -5 0 7 27 17 131 38 191 39 27 0 54 4
60 9 5 5 27 12 49 14 60 7 237 0 265 -11z m4280 -323 c-19 -5 -86 -11 -149
-14 -63 -3 -118 -8 -122 -11 -4 -2 -56 -7 -116 -11 -59 -3 -130 -13 -158 -21
-41 -12 -223 -29 -190 -18 6 2 30 9 55 16 25 7 72 20 105 30 75 23 167 35 145
19 -15 -11 50 -8 240 11 41 4 109 7 150 7 63 1 69 -1 40 -8z m-744 -88 c5 -5
54 -11 109 -14 55 -3 102 -6 105 -7 5 -1 -40 -23 -52 -24 -3 -1 -10 -4 -14 -8
-13 -14 -50 -9 -99 13 -51 22 -67 19 -43 -8 27 -32 31 -43 11 -36 -10 3 -27
13 -37 22 -12 10 -16 11 -12 3 6 -10 -1 -9 -24 3 -18 9 -29 12 -25 5 6 -9 2
-9 -15 0 -15 8 -49 10 -99 7 -70 -5 -72 -5 -28 5 26 5 47 14 47 20 0 5 -5 6
-12 2 -6 -4 -8 -3 -5 2 3 6 25 11 49 13 23 1 44 4 47 7 8 8 87 4 97 -5z
m-5546 -284 c58 1 134 1 170 1 36 -1 94 -1 130 0 55 0 60 -1 35 -9 -37 -12
-97 -18 -245 -24 -150 -5 -215 -12 -329 -36 -52 -10 -96 -17 -99 -15 -5 5 13
10 93 26 28 6 57 12 65 14 8 3 27 5 43 5 15 1 27 5 27 11 0 5 -12 16 -27 25
l-28 15 30 -7 c17 -5 77 -7 135 -6z m6148 -65 c-121 -132 -143 -151 -186 -156
-29 -3 -42 -1 -42 7 0 8 -3 8 -8 2 -4 -5 -16 -17 -27 -25 -11 -8 -7 0 9 18 16
17 34 29 39 25 6 -3 7 -1 3 5 -4 6 19 39 52 74 33 35 72 78 87 95 l27 33 34
-27 35 -26 -23 -25z m-6198 -97 c104 -34 182 -55 294 -80 65 -15 140 -36 166
-48 44 -20 47 -24 39 -46 -7 -16 -13 -21 -22 -14 -28 22 -109 46 -216 65 -63
10 -122 23 -132 29 -10 5 -33 9 -52 9 -18 0 -56 7 -83 15 -27 8 -60 14 -74 14
-17 -1 -19 -3 -8 -6 13 -3 16 -9 10 -21 -5 -9 -8 -24 -7 -32 0 -8 -4 -18 -9
-22 -5 -3 22 -9 60 -12 297 -27 495 -85 502 -148 2 -16 1 -28 -1 -28 -3 0 -38
16 -78 35 -112 53 -317 75 -700 74 -272 0 -339 -7 -480 -54 -113 -38 -115 -39
-199 -122 -46 -45 -86 -83 -87 -83 -2 0 -3 16 -3 36 0 21 -4 33 -10 29 -21
-13 -9 50 22 107 25 48 41 64 78 83 42 21 60 39 129 122 19 22 33 27 191 61
158 34 207 38 360 27 85 -6 114 -5 150 8 57 20 103 21 160 2z m5688 -158 c25
-27 52 -98 52 -139 0 -36 -15 -29 -35 18 -15 37 -26 42 -45 19 -7 -8 -18 -15
-24 -15 -6 0 -20 -8 -31 -16 -14 -11 -15 -15 -5 -14 28 4 41 0 35 -10 -3 -5 2
-10 12 -11 11 0 13 -3 5 -6 -10 -4 -9 -9 5 -20 10 -8 13 -12 8 -9 -6 2 -11 -4
-11 -14 0 -10 5 -16 11 -12 51 30 115 74 128 86 13 13 18 12 41 -13 l27 -28
-60 -52 c-44 -38 -66 -51 -80 -46 -11 3 -23 0 -27 -6 -4 -8 -3 -9 4 -5 7 4 12
3 12 -2 0 -5 -11 -12 -25 -14 -14 -3 -25 -1 -25 5 0 6 -3 7 -7 4 -3 -4 -12 1
-19 11 -12 16 -13 16 -10 0 1 -10 5 -21 9 -24 12 -12 8 -24 -7 -24 -8 0 -16
-4 -18 -8 -3 -8 -310 -121 -405 -149 -48 -15 -55 -15 -100 2 l-48 19 50 22
c29 14 50 30 50 39 0 9 7 20 15 25 11 7 11 10 2 10 -7 0 -10 5 -7 10 4 6 2 17
-4 24 -9 10 -8 15 5 20 11 4 15 2 11 -8 -6 -16 19 -30 36 -19 7 4 8 0 4 -12
-6 -14 -3 -16 13 -12 11 3 23 1 26 -4 3 -5 13 -5 24 1 10 5 28 10 39 10 12 0
21 5 21 10 0 6 7 10 15 10 8 0 15 7 15 17 0 14 -2 15 -17 1 -29 -24 -93 3 -96
40 -1 24 -6 26 -32 16 -13 -6 -14 -9 -3 -16 10 -8 9 -9 -4 -4 -23 7 -94 -19
-134 -49 l-32 -24 -5 21 c-8 29 1 42 61 91 41 34 90 57 234 111 173 64 183 66
196 49 13 -17 14 -17 8 3 -5 16 2 25 33 42 46 26 71 52 50 52 -11 0 -11 2 1
10 23 15 35 12 58 -13z m1348 -543 c8 -43 -4 -54 -61 -54 -37 0 -286 -33 -348
-46 -19 -4 -27 -11 -23 -20 3 -8 -1 -14 -9 -14 -19 0 -28 17 -13 24 7 3 2 3
-12 -1 -40 -10 -53 -9 -58 6 -3 8 0 11 7 7 6 -4 9 -2 5 7 -10 26 24 45 118 67
78 18 310 55 370 59 12 1 19 -10 24 -35z m18 -180 c3 -9 6 -26 6 -38 0 -21 -6
-24 -62 -29 -128 -13 -364 -37 -408 -42 -33 -4 -41 -3 -30 4 8 6 11 11 7 11
-5 0 -1 7 8 16 12 12 13 19 4 30 -9 11 -6 14 21 14 18 0 74 7 124 15 81 14
224 30 297 34 16 0 29 -5 33 -15z m-6630 -223 c59 -5 110 -12 112 -14 6 -6 -8
-77 -15 -73 -4 3 -60 7 -126 10 -78 4 -113 3 -100 -3 11 -5 32 -10 48 -10 18
-1 27 -6 27 -18 0 -13 -3 -14 -12 -5 -16 16 -28 15 -28 -3 0 -24 -18 -17 -22
8 -2 15 -6 18 -11 10 -5 -7 0 -20 13 -33 11 -11 17 -20 14 -20 -3 0 1 -6 8
-13 7 -7 52 -19 101 -27 l87 -13 0 -34 c0 -23 -5 -33 -15 -33 -8 0 -15 9 -15
20 0 11 5 20 10 20 6 0 10 5 10 10 0 6 -9 10 -21 10 -11 0 -17 -5 -14 -10 4
-6 3 -10 -2 -9 -4 1 -15 1 -23 0 -13 -1 -13 -2 0 -11 20 -13 40 -12 -340 -12
-371 0 -608 -15 -820 -52 -8 -2 -42 -6 -75 -10 -33 -5 -83 -14 -111 -22 -28
-8 -89 -15 -137 -17 -48 -1 -87 -6 -87 -10 0 -11 -54 53 -69 81 -6 12 -18 22
-26 22 -8 0 -16 3 -16 8 -1 4 -3 22 -5 40 -2 18 -8 41 -14 52 -17 32 -12 47
18 47 15 1 135 19 267 41 228 38 415 61 675 81 138 11 562 6 714 -8z m-1684
-333 c0 -4 -17 -20 -37 -35 -33 -26 -43 -28 -122 -28 -103 1 -127 7 -160 39
l-24 24 44 -4 c118 -12 184 -9 224 13 31 16 43 18 57 9 10 -6 18 -14 18 -18z"/>
<path d="M4040 4854 c-32 -9 -77 -12 -107 -9 -33 3 -53 1 -53 -5 0 -5 -9 -10
-20 -10 -11 0 -20 -5 -20 -11 0 -6 9 -9 20 -6 11 3 20 1 20 -4 0 -5 -10 -9
-22 -9 -18 0 -20 -2 -9 -9 11 -7 7 -10 -15 -14 -16 -2 1 -5 37 -6 102 -2 156
8 162 30 3 11 10 19 17 19 6 0 9 -4 6 -9 -4 -5 5 -4 18 2 13 7 22 15 20 19 -2
3 6 14 18 22 21 15 21 16 3 15 -11 -1 -45 -8 -75 -15z"/>
<path d="M3710 4850 c-85 -9 -224 -36 -249 -50 -9 -4 -23 -20 -31 -34 -17 -32
-44 -50 -112 -76 -60 -22 -110 -75 -103 -109 2 -12 -1 -21 -7 -21 -6 0 -7 8
-3 18 4 12 3 14 -5 6 -6 -6 -7 -19 -3 -32 7 -19 12 -17 70 38 52 48 75 62 143
85 54 18 86 35 96 50 16 25 33 30 131 40 41 5 63 12 67 22 4 11 2 13 -9 9 -8
-3 -15 -1 -15 4 0 6 18 10 39 10 25 0 41 5 45 15 3 8 12 15 21 15 8 0 15 5 15
10 0 6 -3 9 -7 9 -5 -1 -42 -5 -83 -9z"/>
<path d="M3210 3649 c-93 -15 -104 -19 -91 -32 6 -6 11 -21 11 -34 0 -13 4
-23 9 -23 5 0 7 10 4 23 -4 18 -3 19 6 7 6 -8 11 -23 11 -33 0 -17 6 -18 60
-12 78 9 167 33 127 34 -17 1 -26 5 -22 12 4 6 14 8 24 4 11 -4 9 1 -6 14 -25
24 -37 27 -28 9 4 -7 0 -5 -9 6 -8 10 -19 15 -25 11 -6 -3 -11 -4 -11 0 0 3
10 10 23 15 22 9 22 9 -3 8 -14 0 -50 -4 -80 -9z"/>
<path d="M8398 8692 c-1 -9 -2 -30 -2 -47 -1 -25 -5 -29 -23 -27 -17 2 -23 -2
-23 -17 0 -10 4 -21 10 -23 6 -2 6 -9 0 -17 -7 -12 -11 -13 -24 -1 -30 24 -26
4 5 -23 27 -23 29 -24 23 -5 -4 15 -2 19 7 16 8 -3 13 -12 11 -22 -2 -9 2 -16
8 -16 5 0 10 5 10 10 0 6 5 10 11 10 6 0 7 -5 2 -12 -4 -7 -8 -19 -10 -27 -2
-19 -23 -39 -23 -22 0 13 -39 50 -54 51 -5 0 -3 -7 4 -15 10 -13 9 -15 -9 -15
-15 0 -21 6 -21 21 0 30 -22 18 -26 -14 -3 -29 12 -45 28 -29 6 6 17 8 24 5 8
-3 14 0 14 6 0 6 5 11 10 11 6 0 10 -7 10 -15 0 -8 5 -15 10 -15 6 0 16 -11
22 -25 6 -14 18 -25 26 -25 12 0 12 4 -3 20 -15 17 -16 20 -3 15 21 -8 36 34
17 46 -23 14 0 23 25 10 15 -8 30 -10 39 -5 13 8 13 12 -5 34 l-21 25 8 -24
c5 -17 4 -22 -6 -19 -8 3 -16 15 -17 28 -3 18 -6 20 -14 9 -7 -10 -8 -8 -5 9
4 15 -2 29 -16 42 -11 11 -16 20 -10 20 7 0 10 14 9 35 -2 19 2 36 7 38 6 2 3
6 -6 10 -12 4 -18 1 -19 -11z"/>
<path d="M9501 7458 c-1 -11 -6 -15 -16 -12 -8 4 -15 2 -15 -4 0 -5 7 -15 15
-22 10 -9 15 -9 15 -1 0 6 5 11 11 11 6 0 7 -8 3 -22 -5 -13 -8 -33 -7 -45 1
-20 0 -21 -17 -5 -9 9 -20 24 -23 32 -4 11 -6 10 -6 -4 -1 -10 7 -25 17 -33
16 -13 16 -13 -3 -11 -16 2 -19 -2 -17 -22 1 -13 8 -28 15 -32 7 -5 1 -8 -16
-8 -20 0 -30 -6 -34 -20 -3 -11 -9 -17 -14 -14 -14 8 -11 -6 5 -21 11 -12 17
-11 36 2 13 9 21 12 18 7 -4 -5 0 -18 7 -28 13 -17 14 -16 13 12 -1 16 2 34 6
40 4 7 2 21 -4 32 -12 23 2 27 20 5 7 -8 16 -12 21 -9 5 3 9 -2 9 -10 0 -8 4
-18 10 -21 5 -3 7 0 5 8 -3 7 5 19 20 27 27 15 34 40 10 40 -8 0 -21 12 -30
28 l-15 27 6 -26 c3 -16 1 -30 -6 -34 -16 -10 -18 -4 -13 33 4 26 10 32 29 32
27 0 27 0 14 34 -5 14 -15 26 -22 26 -9 0 -8 -3 2 -10 13 -9 13 -10 0 -10 -20
0 -36 11 -43 30 -4 12 -6 12 -6 -2z"/>
<path d="M9711 6510 c-1 -9 6 -26 15 -38 14 -20 14 -24 0 -38 -17 -17 -20 -25
-8 -23 29 5 34 -2 18 -20 -21 -23 -13 -48 8 -28 8 6 12 15 9 20 -2 4 1 7 6 7
20 0 11 -28 -14 -44 -23 -15 -27 -15 -41 -1 -21 21 -31 19 -12 -2 9 -10 18
-25 21 -33 3 -9 6 -10 6 -2 1 6 7 12 15 12 9 0 13 -10 12 -25 0 -16 -7 -25
-18 -25 -27 0 1 -46 30 -48 37 -3 45 -12 38 -43 -4 -21 0 -35 14 -49 25 -25
25 -36 0 -43 -24 -6 -34 7 -36 48 -3 49 -6 52 -14 15 -5 -19 -5 -40 0 -45 5
-6 7 -21 3 -33 -3 -14 -1 -22 7 -22 7 0 10 7 6 16 -5 14 -4 15 9 4 9 -7 14
-22 13 -33 -2 -11 3 -22 11 -25 8 -3 11 0 7 7 -4 6 -2 11 5 11 8 0 6 6 -4 18
-23 25 -21 35 3 20 11 -7 20 -18 20 -24 0 -7 7 -15 16 -18 23 -9 24 -8 24 14
0 13 9 22 26 26 22 6 25 10 19 33 -10 41 -25 49 -25 14 0 -18 -5 -35 -10 -38
-7 -4 -8 3 -4 22 7 26 7 27 -10 10 -10 -9 -21 -17 -26 -17 -9 0 -3 97 7 113 3
4 -1 15 -8 23 -9 11 -9 18 -1 26 14 14 15 28 3 28 -5 0 -12 -8 -14 -17 -4 -17
-5 -17 -6 0 0 9 -5 17 -11 17 -15 0 -13 -9 11 -46 13 -22 16 -34 9 -34 -9 0
-11 -10 -6 -31 5 -27 4 -28 -9 -15 -8 8 -15 26 -15 40 0 14 -4 26 -10 26 -5 0
-10 8 -10 18 0 14 -2 15 -10 2 -15 -23 -34 2 -24 31 5 13 9 31 10 39 0 8 2 22
3 31 1 21 51 35 62 18 4 -6 15 -9 24 -5 13 5 16 1 13 -21 -2 -16 2 -28 11 -31
9 -3 11 0 6 7 -4 7 1 19 11 27 18 15 18 15 0 10 -13 -5 -17 -2 -13 8 3 8 0 20
-8 26 -10 8 -14 8 -17 -1 -2 -7 -8 -6 -17 5 -9 11 -10 16 -2 16 6 0 11 5 11
11 0 5 -5 7 -12 3 -6 -4 -18 2 -26 12 -14 18 -14 18 -9 -3 3 -13 1 -23 -4 -23
-5 0 -9 5 -9 11 0 5 -4 8 -9 5 -20 -13 -38 5 -33 31 3 16 -1 30 -10 37 -8 6
-17 18 -21 26 -5 13 -6 13 -6 0z"/>
<path d="M9111 3093 c21 -41 25 -78 8 -88 -6 -4 -8 -13 -5 -20 3 -8 0 -16 -7
-18 -7 -2 -10 -6 -7 -8 71 -56 88 -66 101 -58 11 7 9 9 -8 9 -13 0 -23 4 -23
10 0 5 8 7 18 4 9 -2 7 1 -5 7 -16 8 -23 21 -23 40 0 35 20 49 34 24 19 -32
45 -55 58 -50 7 3 29 -8 48 -25 19 -16 37 -27 40 -23 5 5 -202 206 -231 223
-14 8 -14 4 2 -27z"/>
<path d="M8127 2414 c-3 -3 -2 -17 4 -31 11 -30 11 -36 0 -29 -5 3 -8 -5 -7
-19 0 -14 8 -27 16 -31 12 -4 9 -9 -10 -19 -30 -17 -40 -18 -40 -5 0 6 8 10
17 10 13 0 14 3 5 12 -15 15 -16 32 -2 23 6 -3 10 -2 10 4 0 21 -19 20 -26 -1
-4 -13 -6 -25 -5 -27 5 -8 -25 -20 -39 -16 -19 6 -21 -44 -3 -63 7 -7 13 -9
13 -3 0 5 -5 13 -11 17 -8 4 -7 9 2 15 19 11 28 -8 19 -40 -4 -16 -13 -25 -25
-24 -12 1 -14 -2 -7 -9 7 -7 7 -20 1 -37 -8 -23 -8 -24 5 -8 17 22 46 22 46 1
0 -14 -2 -15 -17 -3 -16 13 -17 12 -4 -4 8 -9 16 -15 19 -13 2 3 14 -1 26 -9
24 -17 36 -19 36 -5 0 6 -7 10 -16 10 -11 0 -14 6 -10 23 3 12 3 16 0 10 -8
-18 -24 -16 -24 2 0 8 6 15 14 15 8 0 16 7 20 15 3 8 1 15 -3 15 -5 0 -12 -6
-14 -12 -4 -10 -6 -10 -6 -1 -1 18 18 26 33 14 10 -8 20 -6 39 9 18 15 27 17
30 8 4 -9 6 -9 6 -1 1 6 10 9 20 6 13 -3 18 -11 14 -21 -3 -11 -2 -13 4 -6 4
6 15 14 23 17 12 4 11 6 -2 6 -10 1 -18 6 -18 12 0 6 -7 9 -15 5 -9 -3 -15 0
-15 9 0 8 9 15 19 15 11 0 22 4 25 9 4 5 -7 7 -24 5 -17 -3 -30 -1 -30 5 0 6
10 11 23 11 13 0 28 5 35 12 9 9 12 9 12 0 0 -7 5 -12 11 -12 8 0 8 5 -1 15
-7 8 -17 12 -24 8 -21 -13 -38 -12 -32 3 3 8 -1 15 -9 16 -8 0 -20 1 -27 2
-13 1 -19 -42 -7 -50 5 -2 5 -12 2 -21 -4 -11 -3 -14 5 -9 7 4 12 2 12 -4 0
-7 -13 -9 -37 -4 -21 3 -40 6 -43 6 -23 0 -29 -4 -24 -17 4 -8 -1 -17 -10 -21
-9 -3 -13 -10 -10 -15 3 -5 -1 -9 -8 -9 -9 0 -9 -3 2 -10 8 -5 10 -10 4 -10
-21 0 -23 13 -8 42 11 22 12 33 4 43 -9 11 -7 12 8 8 11 -2 23 0 27 7 5 8 11
8 21 -1 17 -14 28 -5 39 29 5 19 3 22 -19 22 -19 0 -24 4 -20 15 4 11 10 12
18 6 7 -6 17 -6 26 -1 8 6 11 10 6 10 -6 0 -2 6 9 13 13 10 15 16 6 21 -6 4
-9 12 -6 17 4 5 1 9 -4 9 -6 0 -11 -9 -11 -19 0 -29 -11 -52 -21 -45 -5 3 -7
10 -4 15 4 5 -1 12 -9 15 -21 8 -21 24 0 24 8 0 13 4 9 10 -3 5 -13 6 -22 3
-11 -4 -14 -3 -9 5 8 13 3 16 -7 6z"/>
<path d="M10006 2315 c-16 -12 -22 -12 -27 -3 -6 10 -11 10 -20 1 -19 -19 437
-310 761 -485 36 -20 85 -46 110 -60 111 -60 431 -207 599 -274 254 -102 668
-227 946 -284 33 -7 74 -16 90 -20 17 -4 57 -13 90 -19 33 -6 95 -17 139 -26
114 -22 106 -27 106 69 l0 84 -42 5 c-24 3 -83 13 -133 21 -49 8 -106 16 -125
18 -19 1 -46 8 -60 15 -14 7 -43 13 -66 13 -22 0 -54 7 -71 15 -17 8 -50 17
-74 20 -24 2 -60 9 -79 15 -19 7 -45 13 -57 15 -44 6 -88 17 -98 25 -5 3 -71
26 -145 50 -74 23 -184 60 -243 81 -60 22 -117 39 -127 39 -10 0 -22 5 -25 10
-4 6 -10 8 -15 5 -5 -3 -11 -1 -14 4 -4 5 -30 17 -59 27 -28 9 -60 23 -70 32
-9 8 -20 12 -24 9 -3 -4 -13 -1 -21 5 -8 7 -44 14 -81 15 -145 6 -159 8 -148
16 9 6 9 10 0 14 -7 2 -13 12 -14 21 0 11 -2 12 -6 5 -2 -7 -9 -13 -14 -13
-11 0 0 52 13 61 6 3 0 9 -11 12 -16 4 -21 0 -21 -13 0 -42 -9 -49 -41 -33
-16 8 -34 11 -41 7 -7 -5 -9 -2 -6 7 4 10 -1 15 -16 15 -23 0 -149 58 -142 65
3 3 -15 11 -39 18 -26 8 -42 18 -39 25 3 7 -6 13 -23 14 -15 1 -38 12 -52 25
-13 12 -21 16 -17 10 5 -9 2 -11 -8 -7 -9 3 -16 10 -16 14 0 5 -10 12 -22 16
-13 3 -31 13 -40 22 -10 8 -18 11 -18 7 0 -4 -9 0 -20 10 -11 10 -28 23 -38
29 -68 41 -91 59 -86 67 3 5 -1 6 -8 4 -15 -6 -98 51 -98 66 0 5 -9 9 -19 9
-11 0 -34 18 -51 40 -33 41 -65 55 -53 23 4 -10 13 -23 22 -29 8 -6 16 -20 17
-30 2 -16 0 -16 -13 4 -9 12 -22 22 -30 22 -9 0 -13 6 -10 14 4 10 1 13 -7 10
-8 -3 -17 -1 -20 5 -4 6 -14 7 -24 4 -16 -5 -16 -4 1 13 15 17 19 17 28 4 9
-12 10 -12 7 -1 -6 21 -20 23 -42 6z"/>
<path d="M7850 1225 c-7 -8 -18 -15 -26 -15 -9 0 -10 -8 -4 -30 10 -34 -1 -47
-20 -25 -7 8 -24 15 -37 15 -21 0 -23 -3 -14 -14 7 -8 20 -12 29 -9 12 3 23
-5 32 -22 14 -25 14 -26 22 -6 5 15 16 21 37 21 24 0 28 -3 24 -20 -3 -12 -2
-20 3 -19 22 4 34 -2 34 -16 0 -8 -7 -15 -17 -15 -22 0 -14 -6 19 -14 l26 -6
-15 31 c-17 35 -15 40 14 33 15 -4 20 -11 15 -22 -5 -15 -4 -15 11 -3 15 11
17 11 17 -2 0 -8 9 -17 21 -20 29 -8 18 -33 -12 -29 -21 2 -22 1 -6 -9 10 -6
24 -9 30 -7 15 5 50 -29 38 -37 -5 -2 -14 2 -21 10 -21 25 -33 17 -16 -10 9
-14 14 -30 11 -34 -3 -5 1 -12 7 -14 10 -4 10 -6 1 -6 -20 -1 -15 -21 5 -21
13 0 14 -2 4 -9 -11 -7 -11 -9 2 -14 9 -4 19 1 24 10 5 9 14 13 21 9 16 -10
14 -26 -5 -26 -8 0 -12 -5 -9 -11 4 -6 13 -8 21 -5 8 3 14 1 14 -4 0 -6 5 -10
11 -10 5 0 7 4 4 10 -10 16 9 40 24 31 11 -7 11 -13 -3 -32 -20 -29 -21 -45
-1 -25 8 8 15 19 15 24 0 5 10 12 21 15 15 4 20 11 15 23 -4 11 -2 15 8 11 10
-4 13 -1 10 7 -3 7 2 20 10 29 8 8 13 17 10 20 -3 3 -8 32 -10 65 -5 67 -23
119 -51 143 -26 24 -64 42 -71 34 -3 -3 4 -8 16 -12 12 -3 19 -9 16 -15 -3 -5
-14 -6 -25 -3 -11 4 -19 2 -19 -4 0 -6 5 -11 11 -11 5 0 7 -4 4 -10 -9 -14
-21 -12 -39 6 -20 19 -20 34 -2 34 22 0 30 19 11 27 -10 3 -21 0 -26 -8 -7
-12 -10 -11 -21 2 -31 38 -63 26 -52 -19 4 -12 0 -22 -10 -25 -9 -4 -16 -16
-16 -28 0 -16 -4 -19 -17 -14 -18 7 -64 24 -93 33 -10 3 -4 9 18 18 17 8 32
16 32 18 0 5 -31 0 -63 -10 -20 -6 -20 -6 -4 10 9 10 21 14 27 11 5 -3 10 1
10 9 0 22 -16 28 -30 11z"/>
<path d="M6525 40 c-95 -5 -99 -6 -70 -19 42 -20 1175 -30 1175 -11 0 32 -31
36 -248 32 -119 -2 -228 -3 -242 -2 -127 4 -536 5 -615 0z"/>
</g>
</svg>
